<svg xmlns="http://www.w3.org/2000/svg" width="30" height="30" xmlns:xlink="http://www.w3.org/1999/xlink">
  <defs>
    <path id="a" d="M8.97412525 14.982659c-4.4598561-.0083784-4.41934545-1.1969061-4.41934545-1.1969061s.05993737-1.5731028.2762091-2.0255333c.2162717-.4524305 3.22243938-1.3810455 3.22243938-1.3810455l.0112325-.3308064c-1.278756-.49726844-2.03676583-2.20111025-2.03676583-4.22664358 0-2.39270728 1.3149394-3.6130911 2.9462303-3.6356482.03075128-.00064447.038301-.00110482.04603485-.00110482 1.6334085.0236619 2.9500972 1.24395367 2.9500972 3.63675302 0 2.02553333-.7592988 3.72937514-2.03961997 4.22664358l.0112325.3308064s3.01021877.928615 3.22676667 1.3810455c.2165479.4524305.2765774 2.0255333.2765774 2.0255333s.0405106 1.1885277-4.4250538 1.1967219c-.03075128.0000921-.03820893.0001842-.04603485.0001842z"/>
    <mask id="b" width="12.8904535" height="16.7976879" x="-2" y="-2">
      <path fill="#fff" d="M2.55477327.1849711h12.8904535V16.982659H2.55477327z"/>
      <use xlink:href="#a"/>
    </mask>
  </defs>
  <g fill="white" fill-rule="evenodd">
    <path fill="#FFF" d="M0 0h30v30H0z"/>
    <path stroke="#7289DA" stroke-width="2" d="M19.5233982 20.7976879c-4.4598561-.0083784-4.41934542-1.1969061-4.41934542-1.1969061s.05993737-1.5731028.2762091-2.02553333c.2162717-.4524305 3.22243942-1.38104545 3.22243942-1.38104545l.0112325-.33080642c-1.2787561-.49726843-2.0367659-2.20111024-2.0367659-4.22664357 0-2.3927073 1.3149394-3.61309112 2.9462303-3.6356482C19.5541495 8.00046036 19.5616992 8 19.5694331 8c1.6334085.0236619 2.9500972 1.24395367 2.9500972 3.63675303 0 2.02553333-.7592988 3.72937514-2.03962 4.22664357l.0112325.33080642s3.0102187.92861496 3.2267667 1.38104545c.2165479.45243053.2765773 2.02553333.2765773 2.02553333s.0405107 1.1885277-4.4250537 1.1967219c-.0307513.0000921-.0382089.0001842-.0460349.0001842zm-9.10404622 0c-4.4598561-.0083784-4.41934544-1.1969061-4.41934544-1.1969061s.05993737-1.5731028.2762091-2.02553333c.2162717-.4524305 3.22243938-1.38104545 3.22243938-1.38104545l.0112325-.33080642c-1.27875602-.49726843-2.03676583-2.20111024-2.03676583-4.22664357 0-2.3927073 1.3149394-3.61309112 2.94623027-3.6356482C10.45010327 8.00046036 10.45765297 8 10.46538683 8c1.6334085.0236619 2.95009723 1.24395367 2.95009723 3.63675303 0 2.02553333-.7592988 3.72937514-2.03962 4.22664357l.0112325.33080642s3.01021875.92861496 3.22676667 1.38104545c.21654793.45243053.27657737 2.02553333.27657737 2.02553333s.04051067 1.1885277-4.42505377 1.1967219c-.03075128.0000921-.03820892.0001842-.04603485.0001842z" opacity=".6"/>
    <g transform="translate(6 8)">
      <use fill="#2f3136" xlink:href="#a"/>
      <use stroke="#FFF" stroke-width="4" mask="url(#b)" xlink:href="#a"/>
    </g>
    <path fill="#FFF" stroke="#7289DA" stroke-width="2" d="M14.97412525 22.982659c-4.4598561-.0083784-4.41934545-1.1969061-4.41934545-1.1969061s.05993737-1.5731028.2762091-2.0255333c.2162717-.4524305 3.22243938-1.3810455 3.22243938-1.3810455l.0112325-.3308064c-1.278756-.49726844-2.03676583-2.20111025-2.03676583-4.22664358 0-2.39270728 1.3149394-3.6130911 2.9462303-3.6356482.03075128-.00064447.038301-.00110482.04603485-.00110482 1.6334085.0236619 2.9500972 1.24395367 2.9500972 3.63675302 0 2.02553333-.7592988 3.72937514-2.03961997 4.22664358l.0112325.3308064s3.01021877.928615 3.22676667 1.3810455c.2165479.4524305.2765774 2.0255333.2765774 2.0255333s.0405106 1.1885277-4.4250538 1.1967219c-.03075128.0000921-.03820893.0001842-.04603485.0001842z"/>
  </g>
</svg>
