<svg width="196" height="148" viewBox="0 0 196 148" fill="none" xmlns="http://www.w3.org/2000/svg">
<g filter="url(#filter0_d_7_93)">
<path fill-rule="evenodd" clip-rule="evenodd" d="M188 91.5033V19.0339C188 12.9446 183.055 8 176.966 8H19.0339C12.9431 8 8 12.9446 8 19.0339V96.389C8 102.478 12.9431 107.423 19.0339 107.423H156.188L164.133 115.37L188 139.235V96.389V91.5033Z" fill="url(#paint0_linear_7_93)"/>
<path d="M41.3771 44.9091L36.5476 74H29.5163L34.3459 44.9091H41.3771ZM50.0241 61.5568L47.9503 74H41.0043L44.6406 52.1818H51.2457L50.5923 56.1875H50.8338C51.5156 54.8523 52.5052 53.8059 53.8026 53.0483C55.0999 52.2812 56.5582 51.8977 58.1776 51.8977C59.7022 51.8977 60.9759 52.2386 61.9986 52.9205C63.0213 53.6023 63.7457 54.5587 64.1719 55.7898C64.598 57.0114 64.669 58.446 64.3849 60.0938L62.0554 74H55.1094L57.1974 61.4574C57.4058 60.2547 57.259 59.3125 56.7571 58.6307C56.2647 57.9394 55.4598 57.5938 54.3423 57.5938C53.6132 57.5938 52.9455 57.7547 52.3395 58.0767C51.7429 58.3892 51.241 58.839 50.8338 59.4261C50.4361 60.0133 50.1662 60.7235 50.0241 61.5568ZM87.8331 58.8438L81.5689 59.0142C81.5784 58.5502 81.4742 58.143 81.2564 57.7926C81.0386 57.4328 80.7308 57.1534 80.3331 56.9545C79.9354 56.7557 79.4619 56.6562 78.9126 56.6562C78.0225 56.6562 77.2223 56.8551 76.5121 57.2528C75.8113 57.6506 75.4183 58.1667 75.3331 58.8011C75.2668 59.142 75.3615 59.4403 75.6172 59.696C75.8729 59.9422 76.4411 60.16 77.3217 60.3494L81.4126 61.1449C83.5149 61.5616 85.0395 62.286 85.9865 63.3182C86.9429 64.3409 87.2839 65.6951 87.0092 67.3807C86.763 68.8201 86.1286 70.0653 85.1058 71.1165C84.0926 72.1676 82.8 72.982 81.228 73.5597C79.6655 74.1278 77.9373 74.4119 76.0433 74.4119C72.8426 74.4119 70.4278 73.768 68.799 72.4801C67.1797 71.1828 66.4221 69.464 66.5263 67.3239L73.2876 67.1534C73.3161 67.9583 73.5859 68.5644 74.0973 68.9716C74.6181 69.3693 75.3236 69.5777 76.2138 69.5966C77.1892 69.6155 78.032 69.4119 78.7422 68.9858C79.4524 68.5597 79.8501 68.0341 79.9354 67.4091C79.9922 67.0019 79.8549 66.6847 79.5234 66.4574C79.2015 66.2301 78.6001 66.0265 77.7195 65.8466L74.0263 65.1222C71.9051 64.715 70.371 63.9479 69.424 62.821C68.4865 61.6847 68.1645 60.2358 68.4581 58.4744C68.7043 57.0729 69.282 55.8845 70.1911 54.9091C71.1096 53.9242 72.3075 53.1761 73.7848 52.6648C75.2715 52.1534 76.9666 51.8977 78.87 51.8977C81.9193 51.8977 84.2204 52.518 85.7734 53.7585C87.3359 54.9896 88.0225 56.6847 87.8331 58.8438ZM89.321 74L92.9574 52.1818H99.9034L96.267 74H89.321ZM96.9205 49.625C95.9356 49.625 95.1354 49.2983 94.5199 48.6449C93.9044 47.9915 93.6629 47.2102 93.7955 46.3011C93.928 45.3826 94.392 44.6013 95.1875 43.9574C95.983 43.3134 96.8684 42.9915 97.8438 42.9915C98.8286 42.9915 99.6193 43.3134 100.216 43.9574C100.822 44.6013 101.059 45.3826 100.926 46.3011C100.813 47.2102 100.358 47.9915 99.5625 48.6449C98.7765 49.2983 97.8958 49.625 96.9205 49.625ZM108.629 74.3125C107.019 74.3125 105.622 73.8958 104.438 73.0625C103.254 72.2292 102.407 70.9792 101.896 69.3125C101.394 67.6458 101.346 65.5767 101.754 63.1051C102.18 60.5388 102.937 58.4271 104.026 56.7699C105.115 55.1127 106.384 53.8864 107.833 53.0909C109.291 52.2955 110.778 51.8977 112.293 51.8977C113.439 51.8977 114.386 52.0966 115.134 52.4943C115.892 52.8826 116.484 53.3845 116.91 54C117.336 54.6155 117.629 55.2547 117.79 55.9176H117.947L119.779 44.9091H126.725L121.896 74H115.021L115.603 70.4631H115.39C114.983 71.1354 114.462 71.7652 113.827 72.3523C113.193 72.9394 112.44 73.4129 111.569 73.7727C110.707 74.1326 109.727 74.3125 108.629 74.3125ZM111.91 68.9006C112.753 68.9006 113.515 68.6638 114.197 68.1903C114.879 67.7074 115.451 67.0303 115.915 66.1591C116.389 65.2879 116.72 64.2652 116.91 63.0909C117.109 61.8977 117.118 60.8703 116.938 60.0085C116.758 59.1468 116.403 58.4839 115.873 58.0199C115.352 57.5559 114.665 57.3239 113.813 57.3239C112.961 57.3239 112.199 57.5606 111.526 58.0341C110.854 58.5076 110.295 59.1752 109.85 60.0369C109.405 60.8987 109.083 61.9167 108.884 63.0909C108.695 64.2652 108.676 65.2879 108.827 66.1591C108.988 67.0303 109.325 67.7074 109.836 68.1903C110.357 68.6638 111.048 68.9006 111.91 68.9006ZM136.455 74.4119C134.173 74.4119 132.279 73.9621 130.773 73.0625C129.277 72.1534 128.226 70.8608 127.62 69.1847C127.014 67.4991 126.905 65.4962 127.293 63.1761C127.672 60.9223 128.444 58.9527 129.609 57.267C130.783 55.572 132.26 54.2557 134.04 53.3182C135.821 52.3712 137.805 51.8977 139.992 51.8977C141.545 51.8977 142.923 52.1392 144.126 52.6222C145.328 53.1051 146.323 53.8248 147.109 54.7812C147.895 55.7282 148.43 56.893 148.714 58.2756C148.998 59.6581 148.988 61.2443 148.685 63.0341L148.415 64.767H129.467L130.106 60.733H142.606C142.719 59.9943 142.658 59.3362 142.421 58.7585C142.184 58.1809 141.801 57.7311 141.271 57.4091C140.75 57.0777 140.111 56.9119 139.353 56.9119C138.586 56.9119 137.866 57.0919 137.194 57.4517C136.531 57.8021 135.968 58.2756 135.504 58.8722C135.04 59.4687 134.737 60.1411 134.594 60.8892L133.842 65.0227C133.69 65.9413 133.733 66.7273 133.969 67.3807C134.206 68.0341 134.613 68.536 135.191 68.8864C135.769 69.2273 136.512 69.3977 137.421 69.3977C138.027 69.3977 138.595 69.3172 139.126 69.1562C139.656 68.9858 140.129 68.7348 140.546 68.4034C140.972 68.0625 141.318 67.6506 141.583 67.1676L147.918 67.3523C147.407 68.7822 146.616 70.0275 145.546 71.0881C144.476 72.1392 143.169 72.9583 141.626 73.5455C140.092 74.1231 138.368 74.4119 136.455 74.4119ZM150.415 74L154.051 52.1818H160.798L160.131 56.1591H160.358C160.992 54.7197 161.821 53.6496 162.844 52.9489C163.866 52.2386 164.974 51.8835 166.168 51.8835C166.49 51.8835 166.812 51.9072 167.134 51.9545C167.465 51.9924 167.777 52.0492 168.071 52.125L167.048 58.1761C166.726 58.053 166.305 57.9631 165.784 57.9062C165.263 57.84 164.79 57.8068 164.364 57.8068C163.54 57.8068 162.773 57.9915 162.062 58.3608C161.362 58.7206 160.765 59.2273 160.273 59.8807C159.79 60.5246 159.473 61.2822 159.321 62.1534L157.361 74H150.415Z" fill="white"/>
</g>
<defs>
<filter id="filter0_d_7_93" x="0" y="0" width="196" height="147.235" filterUnits="userSpaceOnUse" color-interpolation-filters="sRGB">
<feFlood flood-opacity="0" result="BackgroundImageFix"/>
<feColorMatrix in="SourceAlpha" type="matrix" values="0 0 0 0 0 0 0 0 0 0 0 0 0 0 0 0 0 0 127 0" result="hardAlpha"/>
<feOffset/>
<feGaussianBlur stdDeviation="4"/>
<feColorMatrix type="matrix" values="0 0 0 0 0 0 0 0 0 0 0 0 0 0 0 0 0 0 0.5 0"/>
<feBlend mode="normal" in2="BackgroundImageFix" result="effect1_dropShadow_7_93"/>
<feBlend mode="normal" in="SourceGraphic" in2="effect1_dropShadow_7_93" result="shape"/>
</filter>
<linearGradient id="paint0_linear_7_93" x1="78.8135" y1="8" x2="78.8135" y2="139.235" gradientUnits="userSpaceOnUse">
<stop offset="0.00869565" stop-color="#5B6EAE"/>
<stop offset="1" stop-color="#52639D"/>
</linearGradient>
</defs>
</svg>
