<svg width="196" height="185" viewBox="0 0 196 185" fill="none" xmlns="http://www.w3.org/2000/svg">
<g filter="url(#filter0_d_5_85)">
<path d="M66.5 8.70001H173.43C177.845 8.70001 181.43 12.285 181.43 16.7V117.634C181.43 122.049 177.845 125.634 173.43 125.634H66.5C62.085 125.634 58.5 122.049 58.5 117.634V16.7C58.5 12.285 62.085 8.70001 66.5 8.70001Z" fill="#5B6EAE"/>
</g>
<path d="M65.96 8.233H172.89C177.306 8.233 180.89 11.818 180.89 16.233V117.166C180.89 121.582 177.306 125.166 172.89 125.166H65.96C61.545 125.166 57.96 121.582 57.96 117.166V16.233C57.96 11.818 61.545 8.233 65.96 8.233Z" fill="#7289DA"/>
<path d="M180.89 62.439H57.96V94.439H180.89V62.439Z" fill="#8EA1E1"/>
<path d="M180.89 30.439H57.96V62.439H180.89V30.439Z" fill="#AAB8E9"/>
<g filter="url(#filter1_d_5_85)">
<path d="M181.43 94.439H73.701V119.17H181.43V94.439Z" fill="#EBEBEB"/>
</g>
<g filter="url(#filter2_d_5_85)">
<path d="M16.275 41.813H92.213C96.504 41.813 99.988 45.297 99.988 49.588V125.527C99.988 129.818 96.504 133.301 92.213 133.301H16.275C11.984 133.301 8.5 129.818 8.5 125.527V49.588C8.5 45.297 11.984 41.813 16.275 41.813Z" fill="#677BC4"/>
</g>
<path d="M16.233 41.813H91.767C96.035 41.813 99.5 45.278 99.5 49.546V125.08C99.5 129.348 96.035 132.813 91.767 132.813H16.233C11.965 132.813 8.5 129.348 8.5 125.08V49.546C8.5 45.278 11.965 41.813 16.233 41.813Z" fill="url(#paint0_linear_5_85)"/>
<path d="M47.8626 84.897C49.2852 84.897 50.4384 83.7437 50.4384 82.3212C50.4384 80.8986 49.2852 79.7454 47.8626 79.7454C46.4401 79.7454 45.2868 80.8986 45.2868 82.3212C45.2868 83.7437 46.4401 84.897 47.8626 84.897Z" fill="white"/>
<path d="M87.891 68.248C87.551 64.807 85.571 60.96 81.915 60.128C78.519 59.352 74.392 60.063 69.65 62.237C66.269 63.786 62.583 66.105 59.19 68.813C59.19 68.813 57.358 70.079 58.722 71.256C59.464 71.898 62 70.871 62 70.871C63.538 70.35 65.771 69.69 68.212 69.291C72.165 68.645 77.505 68.558 80.502 71.815C81.408 72.8 82.252 73.46 83.081 73.833C84.275 74.369 85.194 74.183 85.755 73.931C86.376 73.653 87.21 73.005 87.653 71.5C87.927 70.571 88.009 69.446 87.891 68.248ZM85.064 70.738C84.918 71.235 84.73 71.433 84.651 71.468C84.532 71.522 83.814 71.428 82.488 69.987C80.77 68.12 78.405 66.934 75.459 66.463C74.433 66.304 73.396 66.226 72.357 66.23C70.911 66.23 69.361 66.365 67.723 66.635C67.4063 66.687 67.0937 66.7433 66.785 66.804C71.773 63.816 77.174 61.815 81.314 62.759C83.649 63.291 84.968 66.115 85.204 68.513C85.288 69.357 85.238 70.147 85.064 70.738Z" fill="white"/>
<path d="M69.35 90.99C69.906 90.672 70.423 90.289 70.889 89.849C71.747 89.04 72.282 88.138 72.469 87.209C69.992 86.797 66.294 86.197 65.841 86.204C64.508 86.228 63.765 86.117 62.586 86.507C56.547 88.506 53.332 91.107 52.993 91.39C53.042 92.085 53.114 92.784 53.216 93.473C53.478 95.252 53.907 96.77 54.491 97.985C54.971 98.982 55.559 99.786 56.248 100.387L57.713 103.337L58.572 101.777C59.994 99.392 61.681 97.422 63.166 95.934C66.253 92.841 69.161 91.102 69.35 90.99ZM57.761 98.1C56.482 96.717 55.852 93.889 55.666 90.962L58.052 89.5C59.993 88.381 62.867 87.192 65.142 87.192C65.384 87.191 65.625 87.206 65.864 87.237L69.239 87.681C68.889 88.054 68.487 88.374 68.044 88.629L68.01 88.647C67.878 88.724 64.735 90.556 61.312 93.971C60.022 95.252 58.835 96.633 57.762 98.1H57.761Z" fill="white"/>
<path d="M72.542 86.357C72.51 85.301 72.039 84.289 71.142 83.35C70.245 82.411 68.927 81.54 67.123 80.704C65.533 79.879 65.179 78.668 64.694 76.604C64.28 74.848 63.787 72.758 62 70.873L59.19 68.815C57.802 68.147 54.818 66.976 50.637 66.772C47.279 66.607 43.823 67.099 40.367 68.233C36.092 69.633 31.806 72.027 27.626 75.347C26.961 75.868 26.302 76.355 25.666 76.827C22.788 78.957 20.304 80.796 20.074 83.676C19.977 84.884 20.296 86.139 21.05 87.509C21.771 88.823 22.901 90.258 24.503 91.896C27.106 94.558 29.557 97.157 31.926 99.67C36.308 104.316 40.091 108.328 43.326 111.138C45.096 112.676 46.585 113.747 47.876 114.414C49.011 114.999 50.026 115.291 50.947 115.291C51.346 115.292 51.742 115.234 52.124 115.119C53.098 114.821 53.896 114.152 54.496 113.13C55.024 112.23 55.402 111.058 55.65 109.549C56.129 106.631 57.233 104.021 58.571 101.777L56.247 100.388C54.574 103.192 53.476 106.126 52.986 109.111C52.66 111.094 52.075 112.312 51.335 112.537C50.837 112.689 50.069 112.509 49.113 112.016C48.015 111.45 46.701 110.498 45.096 109.102C41.964 106.381 38.222 102.413 33.889 97.819C31.511 95.298 29.051 92.691 26.433 90.01C23.847 87.364 22.647 85.363 22.764 83.891C22.897 82.235 24.827 80.805 27.272 78.996C27.924 78.514 28.598 78.014 29.293 77.471L29.3 77.465C35.926 72.201 42.847 69.438 49.382 69.438C49.7033 69.438 50.0237 69.4447 50.343 69.458C53.024 69.57 55.134 70.138 56.432 70.593C57.756 71.059 58.531 71.507 58.629 71.565C61.116 73.197 61.578 75.152 62.066 77.223C62.324 78.313 62.599 79.48 63.201 80.549C58.324 81.127 53.975 83.916 53.751 84.063L53.227 84.403L53.148 85.023C52.953 86.541 52.836 88.734 52.969 91.015C52.976 91.14 52.985 91.265 52.994 91.391C53.333 91.107 56.547 88.506 62.587 86.508C63.768 86.118 64.51 86.228 65.841 86.204C66.296 86.196 69.991 86.797 72.469 87.21C72.526 86.929 72.55 86.643 72.542 86.357ZM66.131 85.229C65.804 85.187 65.474 85.167 65.144 85.168C61.767 85.168 58.072 87.152 57.02 87.76L55.609 88.624C55.621 87.711 55.671 86.824 55.753 86.007C57.303 85.111 61.981 82.675 66.142 83.222C68.257 84.225 69.176 85.08 69.568 85.682L66.131 85.229Z" fill="white"/>
<g filter="url(#filter3_d_5_85)">
<path fill-rule="evenodd" clip-rule="evenodd" d="M187.637 146.892V101.37C187.637 97.545 184.531 94.439 180.706 94.439H81.5C77.674 94.439 74.569 97.545 74.569 101.37V149.961C74.569 153.786 77.674 156.892 81.5 156.892H167.654L172.645 161.884L187.637 176.875V149.961V146.892Z" fill="url(#paint1_linear_5_85)"/>
<path d="M100.978 135H96.4442L105.231 117.545H110.848L113.839 135H109.305L107.387 121.943H107.251L100.978 135ZM101.524 128.131H111.001L110.456 131.335H100.978L101.524 128.131ZM122.784 117.545L119.886 135H115.718L118.616 117.545H122.784ZM121.746 139.909L124.763 121.909H128.888L128.522 124.151H128.65C128.877 123.753 129.178 123.369 129.553 123C129.934 122.631 130.391 122.33 130.925 122.097C131.459 121.858 132.07 121.739 132.757 121.739C133.667 121.739 134.476 121.977 135.186 122.455C135.897 122.932 136.414 123.668 136.738 124.662C137.061 125.656 137.096 126.923 136.84 128.463C136.596 129.946 136.152 131.188 135.51 132.188C134.874 133.188 134.118 133.938 133.243 134.438C132.368 134.938 131.451 135.188 130.49 135.188C129.831 135.188 129.275 135.08 128.82 134.864C128.371 134.648 128.016 134.364 127.755 134.011C127.493 133.659 127.311 133.281 127.209 132.878H127.09L125.931 139.909H121.746ZM127.755 128.455C127.641 129.159 127.635 129.773 127.738 130.295C127.84 130.818 128.047 131.224 128.36 131.514C128.678 131.798 129.09 131.94 129.596 131.94C130.107 131.94 130.561 131.798 130.959 131.514C131.363 131.224 131.701 130.818 131.973 130.295C132.246 129.773 132.445 129.159 132.57 128.455C132.678 127.75 132.681 127.139 132.578 126.622C132.482 126.105 132.28 125.705 131.973 125.42C131.667 125.136 131.255 124.994 130.738 124.994C130.232 124.994 129.772 125.134 129.357 125.412C128.948 125.69 128.607 126.088 128.334 126.605C128.061 127.122 127.868 127.739 127.755 128.455ZM143.375 127.534L142.13 135H137.963L140.86 117.545H144.892L143.784 124.312H143.929C144.349 123.506 144.934 122.875 145.684 122.42C146.434 121.966 147.304 121.739 148.292 121.739C149.201 121.739 149.963 121.943 150.576 122.352C151.19 122.756 151.625 123.327 151.88 124.065C152.136 124.804 152.181 125.668 152.017 126.656L150.619 135H146.451L147.713 127.474C147.826 126.747 147.733 126.179 147.431 125.77C147.13 125.361 146.647 125.156 145.983 125.156C145.545 125.156 145.142 125.253 144.772 125.446C144.409 125.634 144.105 125.903 143.86 126.256C143.616 126.608 143.454 127.034 143.375 127.534ZM156.851 135.222C156.022 135.222 155.306 135.082 154.703 134.804C154.107 134.52 153.669 134.091 153.391 133.517C153.118 132.943 153.053 132.227 153.195 131.369C153.32 130.642 153.55 130.031 153.885 129.537C154.226 129.037 154.644 128.631 155.138 128.318C155.638 128.006 156.195 127.767 156.809 127.602C157.422 127.437 158.064 127.327 158.735 127.27C159.485 127.202 160.093 127.128 160.559 127.048C161.03 126.969 161.382 126.858 161.615 126.716C161.848 126.568 161.99 126.364 162.042 126.102V126.06C162.11 125.622 162.016 125.284 161.76 125.045C161.505 124.807 161.121 124.688 160.61 124.688C160.064 124.688 159.598 124.807 159.212 125.045C158.826 125.284 158.556 125.614 158.402 126.034L154.584 125.898C154.823 125.102 155.232 124.392 155.811 123.767C156.391 123.136 157.127 122.642 158.019 122.284C158.917 121.92 159.953 121.739 161.13 121.739C161.959 121.739 162.709 121.838 163.38 122.037C164.05 122.23 164.615 122.514 165.076 122.889C165.542 123.259 165.874 123.713 166.073 124.253C166.272 124.793 166.314 125.409 166.201 126.102L164.709 135H160.789L161.096 133.176H160.993C160.686 133.619 160.326 133.994 159.911 134.301C159.502 134.608 159.042 134.838 158.53 134.991C158.019 135.145 157.459 135.222 156.851 135.222ZM158.607 132.494C159.044 132.494 159.459 132.403 159.851 132.222C160.243 132.04 160.573 131.79 160.84 131.472C161.113 131.148 161.286 130.773 161.36 130.347L161.556 129.102C161.436 129.165 161.286 129.222 161.104 129.273C160.922 129.324 160.729 129.372 160.525 129.418C160.32 129.457 160.11 129.497 159.894 129.537C159.684 129.571 159.482 129.602 159.289 129.631C158.88 129.693 158.525 129.79 158.223 129.92C157.922 130.051 157.681 130.222 157.499 130.432C157.323 130.636 157.215 130.881 157.175 131.165C157.107 131.591 157.206 131.92 157.473 132.153C157.74 132.381 158.118 132.494 158.607 132.494Z" fill="white"/>
</g>
<defs>
<filter id="filter0_d_5_85" x="50.5" y="0.700012" width="138.93" height="132.934" filterUnits="userSpaceOnUse" color-interpolation-filters="sRGB">
<feFlood flood-opacity="0" result="BackgroundImageFix"/>
<feColorMatrix in="SourceAlpha" type="matrix" values="0 0 0 0 0 0 0 0 0 0 0 0 0 0 0 0 0 0 127 0" result="hardAlpha"/>
<feOffset/>
<feGaussianBlur stdDeviation="4"/>
<feColorMatrix type="matrix" values="0 0 0 0 0 0 0 0 0 0 0 0 0 0 0 0 0 0 0.5 0"/>
<feBlend mode="normal" in2="BackgroundImageFix" result="effect1_dropShadow_5_85"/>
<feBlend mode="normal" in="SourceGraphic" in2="effect1_dropShadow_5_85" result="shape"/>
</filter>
<filter id="filter1_d_5_85" x="65.701" y="86.439" width="123.729" height="40.731" filterUnits="userSpaceOnUse" color-interpolation-filters="sRGB">
<feFlood flood-opacity="0" result="BackgroundImageFix"/>
<feColorMatrix in="SourceAlpha" type="matrix" values="0 0 0 0 0 0 0 0 0 0 0 0 0 0 0 0 0 0 127 0" result="hardAlpha"/>
<feOffset/>
<feGaussianBlur stdDeviation="4"/>
<feColorMatrix type="matrix" values="0 0 0 0 0 0 0 0 0 0 0 0 0 0 0 0 0 0 0.5 0"/>
<feBlend mode="normal" in2="BackgroundImageFix" result="effect1_dropShadow_5_85"/>
<feBlend mode="normal" in="SourceGraphic" in2="effect1_dropShadow_5_85" result="shape"/>
</filter>
<filter id="filter2_d_5_85" x="0.5" y="33.813" width="107.488" height="107.488" filterUnits="userSpaceOnUse" color-interpolation-filters="sRGB">
<feFlood flood-opacity="0" result="BackgroundImageFix"/>
<feColorMatrix in="SourceAlpha" type="matrix" values="0 0 0 0 0 0 0 0 0 0 0 0 0 0 0 0 0 0 127 0" result="hardAlpha"/>
<feOffset/>
<feGaussianBlur stdDeviation="4"/>
<feColorMatrix type="matrix" values="0 0 0 0 0 0 0 0 0 0 0 0 0 0 0 0 0 0 0.5 0"/>
<feBlend mode="normal" in2="BackgroundImageFix" result="effect1_dropShadow_5_85"/>
<feBlend mode="normal" in="SourceGraphic" in2="effect1_dropShadow_5_85" result="shape"/>
</filter>
<filter id="filter3_d_5_85" x="66.569" y="86.439" width="129.068" height="98.436" filterUnits="userSpaceOnUse" color-interpolation-filters="sRGB">
<feFlood flood-opacity="0" result="BackgroundImageFix"/>
<feColorMatrix in="SourceAlpha" type="matrix" values="0 0 0 0 0 0 0 0 0 0 0 0 0 0 0 0 0 0 127 0" result="hardAlpha"/>
<feOffset/>
<feGaussianBlur stdDeviation="4"/>
<feColorMatrix type="matrix" values="0 0 0 0 0 0 0 0 0 0 0 0 0 0 0 0 0 0 0.5 0"/>
<feBlend mode="normal" in2="BackgroundImageFix" result="effect1_dropShadow_5_85"/>
<feBlend mode="normal" in="SourceGraphic" in2="effect1_dropShadow_5_85" result="shape"/>
</filter>
<linearGradient id="paint0_linear_5_85" x1="54" y1="41.813" x2="54" y2="132.813" gradientUnits="userSpaceOnUse">
<stop offset="0.0173913" stop-color="#7289DA"/>
<stop offset="0.991304" stop-color="#677BC4"/>
</linearGradient>
<linearGradient id="paint1_linear_5_85" x1="119.051" y1="94.439" x2="119.051" y2="176.875" gradientUnits="userSpaceOnUse">
<stop offset="0.00869565" stop-color="#5B6EAE"/>
<stop offset="1" stop-color="#52639D"/>
</linearGradient>
</defs>
</svg>
