<svg width="220" height="220" viewBox="0 0 220 220" fill="none" xmlns="http://www.w3.org/2000/svg">
<g filter="url(#filter0_d_5_84)">
<path d="M78.5 30.7H185.43C189.845 30.7 193.43 34.285 193.43 38.7V139.634C193.43 144.049 189.845 147.634 185.43 147.634H78.5C74.085 147.634 70.5 144.049 70.5 139.634V38.7C70.5 34.285 74.085 30.7 78.5 30.7Z" fill="#5B6EAE"/>
</g>
<path d="M77.96 30.233H184.89C189.306 30.233 192.89 33.818 192.89 38.233V139.166C192.89 143.582 189.306 147.166 184.89 147.166H77.96C73.545 147.166 69.96 143.582 69.96 139.166V38.233C69.96 33.818 73.545 30.233 77.96 30.233Z" fill="#7289DA"/>
<path d="M192.89 84.439H69.96V116.439H192.89V84.439Z" fill="#8EA1E1"/>
<path d="M192.89 52.439H69.96V84.439H192.89V52.439Z" fill="#AAB8E9"/>
<g filter="url(#filter1_d_5_84)">
<path d="M193.43 116.439H85.701V141.17H193.43V116.439Z" fill="#EBEBEB"/>
</g>
<g filter="url(#filter2_d_5_84)">
<path d="M28.275 63.813H104.213C108.504 63.813 111.988 67.297 111.988 71.588V147.527C111.988 151.818 108.504 155.301 104.213 155.301H28.275C23.984 155.301 20.5 151.818 20.5 147.527V71.588C20.5 67.297 23.984 63.813 28.275 63.813Z" fill="#677BC4"/>
</g>
<path d="M28.233 63.813H103.767C108.035 63.813 111.5 67.278 111.5 71.546V147.08C111.5 151.348 108.035 154.813 103.767 154.813H28.233C23.965 154.813 20.5 151.348 20.5 147.08V71.546C20.5 67.278 23.965 63.813 28.233 63.813Z" fill="url(#paint0_linear_5_84)"/>
<path d="M59.8626 106.897C61.2852 106.897 62.4384 105.744 62.4384 104.321C62.4384 102.899 61.2852 101.745 59.8626 101.745C58.4401 101.745 57.2868 102.899 57.2868 104.321C57.2868 105.744 58.4401 106.897 59.8626 106.897Z" fill="white"/>
<path d="M99.891 90.248C99.551 86.807 97.571 82.96 93.915 82.128C90.519 81.352 86.392 82.063 81.65 84.237C78.269 85.786 74.583 88.105 71.19 90.813C71.19 90.813 69.358 92.079 70.722 93.256C71.464 93.898 74 92.871 74 92.871C75.538 92.35 77.771 91.69 80.212 91.291C84.165 90.645 89.505 90.558 92.502 93.815C93.408 94.8 94.252 95.46 95.081 95.833C96.275 96.369 97.194 96.183 97.755 95.931C98.376 95.653 99.21 95.005 99.653 93.5C99.927 92.571 100.009 91.446 99.891 90.248ZM97.064 92.738C96.918 93.235 96.73 93.433 96.651 93.468C96.532 93.522 95.814 93.428 94.488 91.987C92.77 90.12 90.405 88.934 87.459 88.463C86.433 88.304 85.396 88.226 84.357 88.23C82.911 88.23 81.361 88.365 79.723 88.635C79.4063 88.687 79.0937 88.7433 78.785 88.804C83.773 85.816 89.174 83.815 93.314 84.759C95.649 85.291 96.968 88.115 97.204 90.513C97.288 91.357 97.238 92.147 97.064 92.738Z" fill="white"/>
<path d="M81.35 112.99C81.906 112.672 82.423 112.289 82.889 111.849C83.747 111.04 84.282 110.138 84.469 109.209C81.992 108.797 78.294 108.197 77.841 108.204C76.508 108.228 75.765 108.117 74.586 108.507C68.547 110.506 65.332 113.107 64.993 113.39C65.042 114.085 65.114 114.784 65.216 115.473C65.478 117.252 65.907 118.77 66.491 119.985C66.971 120.982 67.559 121.786 68.248 122.387L69.713 125.337L70.572 123.777C71.994 121.392 73.681 119.422 75.166 117.934C78.253 114.841 81.161 113.102 81.35 112.99ZM69.761 120.1C68.482 118.717 67.852 115.889 67.666 112.962L70.052 111.5C71.993 110.381 74.867 109.192 77.142 109.192C77.384 109.191 77.625 109.206 77.864 109.237L81.239 109.681C80.889 110.054 80.487 110.374 80.044 110.629L80.01 110.647C79.878 110.724 76.735 112.556 73.312 115.971C72.022 117.252 70.835 118.633 69.762 120.1H69.761Z" fill="white"/>
<path d="M84.542 108.357C84.51 107.301 84.039 106.289 83.142 105.35C82.245 104.411 80.927 103.54 79.123 102.704C77.533 101.879 77.179 100.668 76.694 98.604C76.28 96.848 75.787 94.758 74 92.873L71.19 90.815C69.802 90.147 66.818 88.976 62.637 88.772C59.279 88.607 55.823 89.099 52.367 90.233C48.092 91.633 43.806 94.027 39.626 97.347C38.961 97.868 38.302 98.355 37.666 98.827C34.788 100.957 32.304 102.796 32.074 105.676C31.977 106.884 32.296 108.139 33.05 109.509C33.771 110.823 34.901 112.258 36.503 113.896C39.106 116.558 41.557 119.157 43.926 121.67C48.308 126.316 52.091 130.328 55.326 133.138C57.096 134.676 58.585 135.747 59.876 136.414C61.011 136.999 62.026 137.291 62.947 137.291C63.346 137.292 63.742 137.234 64.124 137.119C65.098 136.821 65.896 136.152 66.496 135.13C67.024 134.23 67.402 133.058 67.65 131.549C68.129 128.631 69.233 126.021 70.571 123.777L68.247 122.388C66.574 125.192 65.476 128.126 64.986 131.111C64.66 133.094 64.075 134.312 63.335 134.537C62.837 134.689 62.069 134.509 61.113 134.016C60.015 133.45 58.701 132.498 57.096 131.102C53.964 128.381 50.222 124.413 45.889 119.819C43.511 117.298 41.051 114.691 38.433 112.01C35.847 109.364 34.647 107.363 34.764 105.891C34.897 104.235 36.827 102.805 39.272 100.996C39.924 100.514 40.598 100.014 41.293 99.471L41.3 99.465C47.926 94.201 54.847 91.438 61.382 91.438C61.7033 91.438 62.0237 91.4447 62.343 91.458C65.024 91.57 67.134 92.138 68.432 92.593C69.756 93.059 70.531 93.507 70.629 93.565C73.116 95.197 73.578 97.152 74.066 99.223C74.324 100.313 74.599 101.48 75.201 102.549C70.324 103.127 65.975 105.916 65.751 106.063L65.227 106.403L65.148 107.023C64.953 108.541 64.836 110.734 64.969 113.015C64.976 113.14 64.985 113.265 64.994 113.391C65.333 113.107 68.547 110.506 74.587 108.508C75.768 108.118 76.51 108.228 77.841 108.204C78.296 108.196 81.991 108.797 84.469 109.21C84.526 108.929 84.55 108.643 84.542 108.357ZM78.131 107.229C77.804 107.187 77.474 107.167 77.144 107.168C73.767 107.168 70.072 109.152 69.02 109.76L67.609 110.624C67.621 109.711 67.671 108.824 67.753 108.007C69.303 107.111 73.981 104.675 78.142 105.222C80.257 106.225 81.176 107.08 81.568 107.682L78.131 107.229Z" fill="white"/>
<g filter="url(#filter3_d_5_84)">
<path fill-rule="evenodd" clip-rule="evenodd" d="M199.637 168.892V123.37C199.637 119.545 196.531 116.439 192.706 116.439H93.5C89.674 116.439 86.569 119.545 86.569 123.37V171.961C86.569 175.786 89.674 178.892 93.5 178.892H179.654L184.645 183.884L199.637 198.875V171.961V168.892Z" fill="url(#paint1_linear_5_84)"/>
</g>
<path d="M112.978 157H108.444L117.231 139.545H122.848L125.839 157H121.305L119.387 143.943H119.251L112.978 157ZM113.524 150.131H123.001L122.456 153.335H112.978L113.524 150.131ZM134.784 139.545L131.886 157H127.718L130.616 139.545H134.784ZM133.746 161.909L136.763 143.909H140.888L140.522 146.151H140.65C140.877 145.753 141.178 145.369 141.553 145C141.934 144.631 142.391 144.33 142.925 144.097C143.459 143.858 144.07 143.739 144.757 143.739C145.667 143.739 146.476 143.977 147.186 144.455C147.897 144.932 148.414 145.668 148.738 146.662C149.061 147.656 149.096 148.923 148.84 150.463C148.596 151.946 148.152 153.188 147.51 154.188C146.874 155.188 146.118 155.938 145.243 156.438C144.368 156.938 143.451 157.188 142.49 157.188C141.831 157.188 141.275 157.08 140.82 156.864C140.371 156.648 140.016 156.364 139.755 156.011C139.493 155.659 139.311 155.281 139.209 154.878H139.09L137.931 161.909H133.746ZM139.755 150.455C139.641 151.159 139.635 151.773 139.738 152.295C139.84 152.818 140.047 153.224 140.36 153.514C140.678 153.798 141.09 153.94 141.596 153.94C142.107 153.94 142.561 153.798 142.959 153.514C143.363 153.224 143.701 152.818 143.973 152.295C144.246 151.773 144.445 151.159 144.57 150.455C144.678 149.75 144.681 149.139 144.578 148.622C144.482 148.105 144.28 147.705 143.973 147.42C143.667 147.136 143.255 146.994 142.738 146.994C142.232 146.994 141.772 147.134 141.357 147.412C140.948 147.69 140.607 148.088 140.334 148.605C140.061 149.122 139.868 149.739 139.755 150.455ZM155.375 149.534L154.13 157H149.963L152.86 139.545H156.892L155.784 146.312H155.929C156.349 145.506 156.934 144.875 157.684 144.42C158.434 143.966 159.304 143.739 160.292 143.739C161.201 143.739 161.963 143.943 162.576 144.352C163.19 144.756 163.625 145.327 163.88 146.065C164.136 146.804 164.181 147.668 164.017 148.656L162.619 157H158.451L159.713 149.474C159.826 148.747 159.733 148.179 159.431 147.77C159.13 147.361 158.647 147.156 157.983 147.156C157.545 147.156 157.142 147.253 156.772 147.446C156.409 147.634 156.105 147.903 155.86 148.256C155.616 148.608 155.454 149.034 155.375 149.534ZM168.851 157.222C168.022 157.222 167.306 157.082 166.703 156.804C166.107 156.52 165.669 156.091 165.391 155.517C165.118 154.943 165.053 154.227 165.195 153.369C165.32 152.642 165.55 152.031 165.885 151.537C166.226 151.037 166.644 150.631 167.138 150.318C167.638 150.006 168.195 149.767 168.809 149.602C169.422 149.437 170.064 149.327 170.735 149.27C171.485 149.202 172.093 149.128 172.559 149.048C173.03 148.969 173.382 148.858 173.615 148.716C173.848 148.568 173.99 148.364 174.042 148.102V148.06C174.11 147.622 174.016 147.284 173.76 147.045C173.505 146.807 173.121 146.688 172.61 146.688C172.064 146.688 171.598 146.807 171.212 147.045C170.826 147.284 170.556 147.614 170.402 148.034L166.584 147.898C166.823 147.102 167.232 146.392 167.811 145.767C168.391 145.136 169.127 144.642 170.019 144.284C170.917 143.92 171.953 143.739 173.13 143.739C173.959 143.739 174.709 143.838 175.38 144.037C176.05 144.23 176.615 144.514 177.076 144.889C177.542 145.259 177.874 145.713 178.073 146.253C178.272 146.793 178.314 147.409 178.201 148.102L176.709 157H172.789L173.096 155.176H172.993C172.686 155.619 172.326 155.994 171.911 156.301C171.502 156.608 171.042 156.838 170.53 156.991C170.019 157.145 169.459 157.222 168.851 157.222ZM170.607 154.494C171.044 154.494 171.459 154.403 171.851 154.222C172.243 154.04 172.573 153.79 172.84 153.472C173.113 153.148 173.286 152.773 173.36 152.347L173.556 151.102C173.436 151.165 173.286 151.222 173.104 151.273C172.922 151.324 172.729 151.372 172.525 151.418C172.32 151.457 172.11 151.497 171.894 151.537C171.684 151.571 171.482 151.602 171.289 151.631C170.88 151.693 170.525 151.79 170.223 151.92C169.922 152.051 169.681 152.222 169.499 152.432C169.323 152.636 169.215 152.881 169.175 153.165C169.107 153.591 169.206 153.92 169.473 154.153C169.74 154.381 170.118 154.494 170.607 154.494Z" fill="white"/>
<defs>
<filter id="filter0_d_5_84" x="62.5" y="22.7" width="138.93" height="132.934" filterUnits="userSpaceOnUse" color-interpolation-filters="sRGB">
<feFlood flood-opacity="0" result="BackgroundImageFix"/>
<feColorMatrix in="SourceAlpha" type="matrix" values="0 0 0 0 0 0 0 0 0 0 0 0 0 0 0 0 0 0 127 0" result="hardAlpha"/>
<feOffset/>
<feGaussianBlur stdDeviation="4"/>
<feColorMatrix type="matrix" values="0 0 0 0 0 0 0 0 0 0 0 0 0 0 0 0 0 0 0.5 0"/>
<feBlend mode="normal" in2="BackgroundImageFix" result="effect1_dropShadow_5_84"/>
<feBlend mode="normal" in="SourceGraphic" in2="effect1_dropShadow_5_84" result="shape"/>
</filter>
<filter id="filter1_d_5_84" x="77.701" y="108.439" width="123.729" height="40.731" filterUnits="userSpaceOnUse" color-interpolation-filters="sRGB">
<feFlood flood-opacity="0" result="BackgroundImageFix"/>
<feColorMatrix in="SourceAlpha" type="matrix" values="0 0 0 0 0 0 0 0 0 0 0 0 0 0 0 0 0 0 127 0" result="hardAlpha"/>
<feOffset/>
<feGaussianBlur stdDeviation="4"/>
<feColorMatrix type="matrix" values="0 0 0 0 0 0 0 0 0 0 0 0 0 0 0 0 0 0 0.5 0"/>
<feBlend mode="normal" in2="BackgroundImageFix" result="effect1_dropShadow_5_84"/>
<feBlend mode="normal" in="SourceGraphic" in2="effect1_dropShadow_5_84" result="shape"/>
</filter>
<filter id="filter2_d_5_84" x="12.5" y="55.813" width="107.488" height="107.488" filterUnits="userSpaceOnUse" color-interpolation-filters="sRGB">
<feFlood flood-opacity="0" result="BackgroundImageFix"/>
<feColorMatrix in="SourceAlpha" type="matrix" values="0 0 0 0 0 0 0 0 0 0 0 0 0 0 0 0 0 0 127 0" result="hardAlpha"/>
<feOffset/>
<feGaussianBlur stdDeviation="4"/>
<feColorMatrix type="matrix" values="0 0 0 0 0 0 0 0 0 0 0 0 0 0 0 0 0 0 0.5 0"/>
<feBlend mode="normal" in2="BackgroundImageFix" result="effect1_dropShadow_5_84"/>
<feBlend mode="normal" in="SourceGraphic" in2="effect1_dropShadow_5_84" result="shape"/>
</filter>
<filter id="filter3_d_5_84" x="78.569" y="108.439" width="129.068" height="98.436" filterUnits="userSpaceOnUse" color-interpolation-filters="sRGB">
<feFlood flood-opacity="0" result="BackgroundImageFix"/>
<feColorMatrix in="SourceAlpha" type="matrix" values="0 0 0 0 0 0 0 0 0 0 0 0 0 0 0 0 0 0 127 0" result="hardAlpha"/>
<feOffset/>
<feGaussianBlur stdDeviation="4"/>
<feColorMatrix type="matrix" values="0 0 0 0 0 0 0 0 0 0 0 0 0 0 0 0 0 0 0.5 0"/>
<feBlend mode="normal" in2="BackgroundImageFix" result="effect1_dropShadow_5_84"/>
<feBlend mode="normal" in="SourceGraphic" in2="effect1_dropShadow_5_84" result="shape"/>
</filter>
<linearGradient id="paint0_linear_5_84" x1="66" y1="63.813" x2="66" y2="154.813" gradientUnits="userSpaceOnUse">
<stop offset="0.0173913" stop-color="#7289DA"/>
<stop offset="0.991304" stop-color="#677BC4"/>
</linearGradient>
<linearGradient id="paint1_linear_5_84" x1="131.051" y1="116.439" x2="131.051" y2="198.875" gradientUnits="userSpaceOnUse">
<stop offset="0.00869565" stop-color="#5B6EAE"/>
<stop offset="1" stop-color="#52639D"/>
</linearGradient>
</defs>
</svg>
