<svg width="196" height="148" viewBox="0 0 196 148" fill="none" xmlns="http://www.w3.org/2000/svg">
<g filter="url(#filter0_d_7_102)">
<path fill-rule="evenodd" clip-rule="evenodd" d="M188 91.5033V19.0339C188 12.9446 183.055 8 176.966 8H19.0339C12.9431 8 8 12.9446 8 19.0339V96.389C8 102.478 12.9431 107.423 19.0339 107.423H156.188L164.133 115.37L188 139.235V96.389V91.5033Z" fill="url(#paint0_linear_7_102)"/>
<path d="M46.2972 74H38.7404L53.3853 44.9091H62.7461L67.7319 74H60.1751L56.979 52.2386H56.7518L46.2972 74ZM47.2063 62.5511H63.0018L62.0927 67.892H46.2972L47.2063 62.5511ZM82.6396 44.9091L77.81 74H70.864L75.6935 44.9091H82.6396ZM80.9102 82.1818L85.9386 52.1818H92.8136L92.2028 55.9176H92.4158C92.7946 55.2547 93.2965 54.6155 93.9215 54C94.556 53.3845 95.3183 52.8826 96.2085 52.4943C97.0986 52.0966 98.1166 51.8977 99.2624 51.8977C100.778 51.8977 102.127 52.2955 103.311 53.0909C104.494 53.8864 105.356 55.1127 105.896 56.7699C106.436 58.4271 106.493 60.5388 106.066 63.1051C105.659 65.5767 104.921 67.6458 103.85 69.3125C102.79 70.9792 101.53 72.2292 100.072 73.0625C98.6138 73.8958 97.0844 74.3125 95.484 74.3125C94.3855 74.3125 93.4575 74.1326 92.6999 73.7727C91.9518 73.4129 91.36 72.9394 90.9244 72.3523C90.4888 71.7652 90.1857 71.1354 90.0153 70.4631H89.8164L87.8846 82.1818H80.9102ZM90.9244 63.0909C90.735 64.2652 90.7255 65.2879 90.896 66.1591C91.0664 67.0303 91.4121 67.7074 91.9329 68.1903C92.4632 68.6638 93.1497 68.9006 93.9925 68.9006C94.8448 68.9006 95.6024 68.6638 96.2653 68.1903C96.9376 67.7074 97.5011 67.0303 97.9556 66.1591C98.4102 65.2879 98.7416 64.2652 98.9499 63.0909C99.1299 61.9167 99.1346 60.8987 98.9641 60.0369C98.8031 59.1752 98.467 58.5076 97.9556 58.0341C97.4442 57.5606 96.7577 57.3239 95.896 57.3239C95.0531 57.3239 94.2861 57.5559 93.5948 58.0199C92.913 58.4839 92.3448 59.1468 91.8903 60.0085C91.4357 60.8703 91.1138 61.8977 90.9244 63.0909ZM116.958 61.5568L114.884 74H107.938L112.767 44.9091H119.486L117.64 56.1875H117.881C118.582 54.8428 119.557 53.7917 120.807 53.0341C122.057 52.2765 123.506 51.8977 125.154 51.8977C126.669 51.8977 127.938 52.2386 128.961 52.9205C129.983 53.5928 130.708 54.5445 131.134 55.7756C131.56 57.0066 131.636 58.446 131.361 60.0938L129.032 74H122.086L124.188 61.4574C124.377 60.2453 124.221 59.2983 123.719 58.6165C123.217 57.9347 122.412 57.5938 121.304 57.5938C120.575 57.5938 119.903 57.7547 119.287 58.0767C118.681 58.3892 118.175 58.839 117.767 59.4261C117.36 60.0133 117.09 60.7235 116.958 61.5568ZM139.419 74.3693C138.036 74.3693 136.843 74.1373 135.839 73.6733C134.845 73.1998 134.116 72.4848 133.652 71.5284C133.197 70.572 133.088 69.3788 133.325 67.9489C133.533 66.7367 133.917 65.7188 134.475 64.8949C135.044 64.0616 135.74 63.3845 136.564 62.8636C137.397 62.3428 138.325 61.9451 139.348 61.6705C140.37 61.3958 141.44 61.2112 142.558 61.1165C143.808 61.0028 144.821 60.8797 145.598 60.7472C146.384 60.6146 146.971 60.4299 147.359 60.1932C147.747 59.947 147.984 59.6061 148.069 59.1705V59.0994C148.183 58.3703 148.027 57.8068 147.6 57.4091C147.174 57.0114 146.535 56.8125 145.683 56.8125C144.774 56.8125 143.997 57.0114 143.353 57.4091C142.709 57.8068 142.26 58.3561 142.004 59.0568L135.64 58.8295C136.038 57.5038 136.72 56.3201 137.686 55.2784C138.652 54.2273 139.878 53.4034 141.365 52.8068C142.861 52.2008 144.589 51.8977 146.549 51.8977C147.932 51.8977 149.182 52.0634 150.299 52.3949C151.417 52.7169 152.359 53.1903 153.126 53.8153C153.903 54.4309 154.457 55.1884 154.788 56.0881C155.119 56.9877 155.19 58.0152 155.001 59.1705L152.515 74H145.981L146.493 70.9602H146.322C145.811 71.6989 145.209 72.3239 144.518 72.8352C143.836 73.3466 143.069 73.7301 142.217 73.9858C141.365 74.2415 140.432 74.3693 139.419 74.3693ZM142.345 69.8239C143.074 69.8239 143.765 69.6723 144.419 69.3693C145.072 69.0663 145.621 68.6496 146.066 68.1193C146.521 67.5795 146.81 66.9545 146.933 66.2443L147.26 64.1705C147.061 64.2746 146.81 64.3693 146.507 64.4545C146.204 64.5398 145.882 64.6203 145.541 64.696C145.2 64.7623 144.85 64.8286 144.49 64.8949C144.139 64.9517 143.803 65.0038 143.481 65.0511C142.799 65.1553 142.208 65.3163 141.706 65.5341C141.204 65.7519 140.801 66.036 140.498 66.3864C140.205 66.7273 140.025 67.1345 139.958 67.608C139.845 68.3182 140.011 68.8674 140.456 69.2557C140.901 69.6345 141.53 69.8239 142.345 69.8239Z" fill="white"/>
</g>
<defs>
<filter id="filter0_d_7_102" x="0" y="0" width="196" height="147.235" filterUnits="userSpaceOnUse" color-interpolation-filters="sRGB">
<feFlood flood-opacity="0" result="BackgroundImageFix"/>
<feColorMatrix in="SourceAlpha" type="matrix" values="0 0 0 0 0 0 0 0 0 0 0 0 0 0 0 0 0 0 127 0" result="hardAlpha"/>
<feOffset/>
<feGaussianBlur stdDeviation="4"/>
<feColorMatrix type="matrix" values="0 0 0 0 0 0 0 0 0 0 0 0 0 0 0 0 0 0 0.5 0"/>
<feBlend mode="normal" in2="BackgroundImageFix" result="effect1_dropShadow_7_102"/>
<feBlend mode="normal" in="SourceGraphic" in2="effect1_dropShadow_7_102" result="shape"/>
</filter>
<linearGradient id="paint0_linear_7_102" x1="78.8135" y1="8" x2="78.8135" y2="139.235" gradientUnits="userSpaceOnUse">
<stop offset="0.00869565" stop-color="#5B6EAE"/>
<stop offset="1" stop-color="#52639D"/>
</linearGradient>
</defs>
</svg>
