<svg width="196" height="185" viewBox="0 0 196 185" fill="none" xmlns="http://www.w3.org/2000/svg">
<g filter="url(#filter0_d_5_3)">
<path d="M66.5 8.70001H173.43C177.845 8.70001 181.43 12.285 181.43 16.7V117.634C181.43 122.049 177.845 125.634 173.43 125.634H66.5C62.085 125.634 58.5 122.049 58.5 117.634V16.7C58.5 12.285 62.085 8.70001 66.5 8.70001Z" fill="#5B6EAE"/>
</g>
<path d="M65.96 8.233H172.89C177.306 8.233 180.89 11.818 180.89 16.233V117.166C180.89 121.582 177.306 125.166 172.89 125.166H65.96C61.545 125.166 57.96 121.582 57.96 117.166V16.233C57.96 11.818 61.545 8.233 65.96 8.233Z" fill="#7289DA"/>
<path d="M180.89 62.439H57.96V94.439H180.89V62.439Z" fill="#8EA1E1"/>
<path d="M180.89 30.439H57.96V62.439H180.89V30.439Z" fill="#AAB8E9"/>
<g filter="url(#filter1_d_5_3)">
<path d="M181.43 94.439H73.701V119.17H181.43V94.439Z" fill="#EBEBEB"/>
</g>
<g filter="url(#filter2_d_5_3)">
<path d="M16.275 41.813H92.213C96.504 41.813 99.988 45.297 99.988 49.588V125.527C99.988 129.818 96.504 133.301 92.213 133.301H16.275C11.984 133.301 8.5 129.818 8.5 125.527V49.588C8.5 45.297 11.984 41.813 16.275 41.813Z" fill="#677BC4"/>
</g>
<path d="M16.233 41.813H91.767C96.035 41.813 99.5 45.278 99.5 49.546V125.08C99.5 129.348 96.035 132.813 91.767 132.813H16.233C11.965 132.813 8.5 129.348 8.5 125.08V49.546C8.5 45.278 11.965 41.813 16.233 41.813Z" fill="url(#paint0_linear_5_3)"/>
<path d="M47.8626 84.897C49.2852 84.897 50.4384 83.7437 50.4384 82.3212C50.4384 80.8986 49.2852 79.7454 47.8626 79.7454C46.4401 79.7454 45.2868 80.8986 45.2868 82.3212C45.2868 83.7437 46.4401 84.897 47.8626 84.897Z" fill="white"/>
<path d="M87.891 68.248C87.551 64.807 85.571 60.96 81.915 60.128C78.519 59.352 74.392 60.063 69.65 62.237C66.269 63.786 62.583 66.105 59.19 68.813C59.19 68.813 57.358 70.079 58.722 71.256C59.464 71.898 62 70.871 62 70.871C63.538 70.35 65.771 69.69 68.212 69.291C72.165 68.645 77.505 68.558 80.502 71.815C81.408 72.8 82.252 73.46 83.081 73.833C84.275 74.369 85.194 74.183 85.755 73.931C86.376 73.653 87.21 73.005 87.653 71.5C87.927 70.571 88.009 69.446 87.891 68.248ZM85.064 70.738C84.918 71.235 84.73 71.433 84.651 71.468C84.532 71.522 83.814 71.428 82.488 69.987C80.77 68.12 78.405 66.934 75.459 66.463C74.433 66.304 73.396 66.226 72.357 66.23C70.911 66.23 69.361 66.365 67.723 66.635C67.4063 66.687 67.0937 66.7433 66.785 66.804C71.773 63.816 77.174 61.815 81.314 62.759C83.649 63.291 84.968 66.115 85.204 68.513C85.288 69.357 85.238 70.147 85.064 70.738Z" fill="white"/>
<path d="M69.35 90.99C69.906 90.672 70.423 90.289 70.889 89.849C71.747 89.04 72.282 88.138 72.469 87.209C69.992 86.797 66.294 86.197 65.841 86.204C64.508 86.228 63.765 86.117 62.586 86.507C56.547 88.506 53.332 91.107 52.993 91.39C53.042 92.085 53.114 92.784 53.216 93.473C53.478 95.252 53.907 96.77 54.491 97.985C54.971 98.982 55.559 99.786 56.248 100.387L57.713 103.337L58.572 101.777C59.994 99.392 61.681 97.422 63.166 95.934C66.253 92.841 69.161 91.102 69.35 90.99ZM57.761 98.1C56.482 96.717 55.852 93.889 55.666 90.962L58.052 89.5C59.993 88.381 62.867 87.192 65.142 87.192C65.384 87.191 65.625 87.206 65.864 87.237L69.239 87.681C68.889 88.054 68.487 88.374 68.044 88.629L68.01 88.647C67.878 88.724 64.735 90.556 61.312 93.971C60.022 95.252 58.835 96.633 57.762 98.1H57.761Z" fill="white"/>
<path d="M72.542 86.357C72.51 85.301 72.039 84.289 71.142 83.35C70.245 82.411 68.927 81.54 67.123 80.704C65.533 79.879 65.179 78.668 64.694 76.604C64.28 74.848 63.787 72.758 62 70.873L59.19 68.815C57.802 68.147 54.818 66.976 50.637 66.772C47.279 66.607 43.823 67.099 40.367 68.233C36.092 69.633 31.806 72.027 27.626 75.347C26.961 75.868 26.302 76.355 25.666 76.827C22.788 78.957 20.304 80.796 20.074 83.676C19.977 84.884 20.296 86.139 21.05 87.509C21.771 88.823 22.901 90.258 24.503 91.896C27.106 94.558 29.557 97.157 31.926 99.67C36.308 104.316 40.091 108.328 43.326 111.138C45.096 112.676 46.585 113.747 47.876 114.414C49.011 114.999 50.026 115.291 50.947 115.291C51.346 115.292 51.742 115.234 52.124 115.119C53.098 114.821 53.896 114.152 54.496 113.13C55.024 112.23 55.402 111.058 55.65 109.549C56.129 106.631 57.233 104.021 58.571 101.777L56.247 100.388C54.574 103.192 53.476 106.126 52.986 109.111C52.66 111.094 52.075 112.312 51.335 112.537C50.837 112.689 50.069 112.509 49.113 112.016C48.015 111.45 46.701 110.498 45.096 109.102C41.964 106.381 38.222 102.413 33.889 97.819C31.511 95.298 29.051 92.691 26.433 90.01C23.847 87.364 22.647 85.363 22.764 83.891C22.897 82.235 24.827 80.805 27.272 78.996C27.924 78.514 28.598 78.014 29.293 77.471L29.3 77.465C35.926 72.201 42.847 69.438 49.382 69.438C49.7033 69.438 50.0237 69.4447 50.343 69.458C53.024 69.57 55.134 70.138 56.432 70.593C57.756 71.059 58.531 71.507 58.629 71.565C61.116 73.197 61.578 75.152 62.066 77.223C62.324 78.313 62.599 79.48 63.201 80.549C58.324 81.127 53.975 83.916 53.751 84.063L53.227 84.403L53.148 85.023C52.953 86.541 52.836 88.734 52.969 91.015C52.976 91.14 52.985 91.265 52.994 91.391C53.333 91.107 56.547 88.506 62.587 86.508C63.768 86.118 64.51 86.228 65.841 86.204C66.296 86.196 69.991 86.797 72.469 87.21C72.526 86.929 72.55 86.643 72.542 86.357ZM66.131 85.229C65.804 85.187 65.474 85.167 65.144 85.168C61.767 85.168 58.072 87.152 57.02 87.76L55.609 88.624C55.621 87.711 55.671 86.824 55.753 86.007C57.303 85.111 61.981 82.675 66.142 83.222C68.257 84.225 69.176 85.08 69.568 85.682L66.131 85.229Z" fill="white"/>
<g filter="url(#filter3_d_5_3)">
<path fill-rule="evenodd" clip-rule="evenodd" d="M187.637 146.892V101.37C187.637 97.545 184.531 94.439 180.706 94.439H81.5C77.674 94.439 74.569 97.545 74.569 101.37V149.961C74.569 153.786 77.674 156.892 81.5 156.892H167.654L172.645 161.884L187.637 176.875V149.961V146.892Z" fill="url(#paint1_linear_5_3)"/>
<path d="M98.0263 117.545L95.1286 135H90.9098L93.8075 117.545H98.0263ZM103.214 127.534L101.97 135H97.8026L99.9844 121.909H103.947L103.555 124.312H103.7C104.109 123.511 104.703 122.884 105.482 122.429C106.26 121.969 107.135 121.739 108.107 121.739C109.021 121.739 109.786 121.943 110.399 122.352C111.013 122.761 111.447 123.335 111.703 124.074C111.959 124.807 112.001 125.668 111.831 126.656L110.433 135H106.266L107.518 127.474C107.643 126.753 107.555 126.187 107.254 125.778C106.959 125.364 106.476 125.156 105.805 125.156C105.368 125.156 104.967 125.253 104.604 125.446C104.246 125.634 103.945 125.903 103.7 126.256C103.462 126.608 103.3 127.034 103.214 127.534ZM125.9 125.906L122.141 126.009C122.147 125.73 122.085 125.486 121.954 125.276C121.823 125.06 121.638 124.892 121.4 124.773C121.161 124.653 120.877 124.594 120.548 124.594C120.013 124.594 119.533 124.713 119.107 124.952C118.687 125.19 118.451 125.5 118.4 125.881C118.36 126.085 118.417 126.264 118.57 126.418C118.724 126.565 119.065 126.696 119.593 126.81L122.048 127.287C123.309 127.537 124.224 127.972 124.792 128.591C125.366 129.205 125.57 130.017 125.406 131.028C125.258 131.892 124.877 132.639 124.263 133.27C123.656 133.901 122.88 134.389 121.937 134.736C120.999 135.077 119.962 135.247 118.826 135.247C116.906 135.247 115.457 134.861 114.479 134.088C113.508 133.31 113.053 132.278 113.116 130.994L117.173 130.892C117.19 131.375 117.352 131.739 117.658 131.983C117.971 132.222 118.394 132.347 118.928 132.358C119.513 132.369 120.019 132.247 120.445 131.991C120.871 131.736 121.11 131.42 121.161 131.045C121.195 130.801 121.113 130.611 120.914 130.474C120.721 130.338 120.36 130.216 119.832 130.108L117.616 129.673C116.343 129.429 115.423 128.969 114.854 128.293C114.292 127.611 114.099 126.741 114.275 125.685C114.423 124.844 114.769 124.131 115.315 123.545C115.866 122.955 116.585 122.506 117.471 122.199C118.363 121.892 119.38 121.739 120.522 121.739C122.352 121.739 123.732 122.111 124.664 122.855C125.602 123.594 126.013 124.611 125.9 125.906ZM126.793 135L128.974 121.909H133.142L130.96 135H126.793ZM131.352 120.375C130.761 120.375 130.281 120.179 129.912 119.787C129.543 119.395 129.398 118.926 129.477 118.381C129.557 117.83 129.835 117.361 130.312 116.974C130.79 116.588 131.321 116.395 131.906 116.395C132.497 116.395 132.972 116.588 133.33 116.974C133.693 117.361 133.835 117.83 133.756 118.381C133.688 118.926 133.415 119.395 132.938 119.787C132.466 120.179 131.938 120.375 131.352 120.375ZM138.377 135.188C137.411 135.188 136.573 134.938 135.863 134.438C135.153 133.938 134.644 133.188 134.337 132.188C134.036 131.188 134.008 129.946 134.252 128.463C134.508 126.923 134.962 125.656 135.616 124.662C136.269 123.668 137.031 122.932 137.9 122.455C138.775 121.977 139.667 121.739 140.576 121.739C141.263 121.739 141.832 121.858 142.281 122.097C142.735 122.33 143.09 122.631 143.346 123C143.602 123.369 143.778 123.753 143.874 124.151H143.968L145.067 117.545H149.235L146.337 135H142.212L142.562 132.878H142.434C142.19 133.281 141.877 133.659 141.496 134.011C141.116 134.364 140.664 134.648 140.141 134.864C139.624 135.08 139.036 135.188 138.377 135.188ZM140.346 131.94C140.852 131.94 141.309 131.798 141.718 131.514C142.127 131.224 142.471 130.818 142.749 130.295C143.033 129.773 143.232 129.159 143.346 128.455C143.465 127.739 143.471 127.122 143.363 126.605C143.255 126.088 143.042 125.69 142.724 125.412C142.411 125.134 141.999 124.994 141.488 124.994C140.977 124.994 140.519 125.136 140.116 125.42C139.712 125.705 139.377 126.105 139.11 126.622C138.843 127.139 138.65 127.75 138.531 128.455C138.417 129.159 138.406 129.773 138.496 130.295C138.593 130.818 138.795 131.224 139.102 131.514C139.414 131.798 139.829 131.94 140.346 131.94ZM155.073 135.247C153.704 135.247 152.567 134.977 151.664 134.438C150.766 133.892 150.136 133.116 149.772 132.111C149.408 131.099 149.343 129.898 149.576 128.506C149.803 127.153 150.266 125.972 150.965 124.96C151.67 123.943 152.556 123.153 153.624 122.591C154.692 122.023 155.883 121.739 157.195 121.739C158.127 121.739 158.954 121.884 159.675 122.173C160.397 122.463 160.994 122.895 161.465 123.469C161.937 124.037 162.258 124.736 162.428 125.565C162.599 126.395 162.593 127.347 162.411 128.42L162.249 129.46H150.88L151.263 127.04H158.763C158.832 126.597 158.795 126.202 158.653 125.855C158.511 125.509 158.281 125.239 157.962 125.045C157.65 124.847 157.266 124.747 156.812 124.747C156.352 124.747 155.92 124.855 155.516 125.071C155.119 125.281 154.781 125.565 154.502 125.923C154.224 126.281 154.042 126.685 153.957 127.134L153.505 129.614C153.414 130.165 153.44 130.636 153.582 131.028C153.724 131.42 153.968 131.722 154.315 131.932C154.661 132.136 155.107 132.239 155.653 132.239C156.016 132.239 156.357 132.19 156.675 132.094C156.994 131.991 157.278 131.841 157.528 131.642C157.783 131.437 157.991 131.19 158.15 130.901L161.951 131.011C161.644 131.869 161.17 132.616 160.528 133.253C159.886 133.884 159.102 134.375 158.175 134.727C157.255 135.074 156.221 135.247 155.073 135.247ZM163.449 135L165.631 121.909H169.679L169.278 124.295H169.415C169.795 123.432 170.293 122.79 170.906 122.369C171.52 121.943 172.185 121.73 172.901 121.73C173.094 121.73 173.287 121.744 173.48 121.773C173.679 121.795 173.866 121.83 174.043 121.875L173.429 125.506C173.236 125.432 172.983 125.378 172.67 125.344C172.358 125.304 172.074 125.284 171.818 125.284C171.324 125.284 170.864 125.395 170.438 125.616C170.017 125.832 169.659 126.136 169.364 126.528C169.074 126.915 168.884 127.369 168.793 127.892L167.616 135H163.449Z" fill="white"/>
</g>
<defs>
<filter id="filter0_d_5_3" x="50.5" y="0.700012" width="138.93" height="132.934" filterUnits="userSpaceOnUse" color-interpolation-filters="sRGB">
<feFlood flood-opacity="0" result="BackgroundImageFix"/>
<feColorMatrix in="SourceAlpha" type="matrix" values="0 0 0 0 0 0 0 0 0 0 0 0 0 0 0 0 0 0 127 0" result="hardAlpha"/>
<feOffset/>
<feGaussianBlur stdDeviation="4"/>
<feColorMatrix type="matrix" values="0 0 0 0 0 0 0 0 0 0 0 0 0 0 0 0 0 0 0.5 0"/>
<feBlend mode="normal" in2="BackgroundImageFix" result="effect1_dropShadow_5_3"/>
<feBlend mode="normal" in="SourceGraphic" in2="effect1_dropShadow_5_3" result="shape"/>
</filter>
<filter id="filter1_d_5_3" x="65.701" y="86.439" width="123.729" height="40.731" filterUnits="userSpaceOnUse" color-interpolation-filters="sRGB">
<feFlood flood-opacity="0" result="BackgroundImageFix"/>
<feColorMatrix in="SourceAlpha" type="matrix" values="0 0 0 0 0 0 0 0 0 0 0 0 0 0 0 0 0 0 127 0" result="hardAlpha"/>
<feOffset/>
<feGaussianBlur stdDeviation="4"/>
<feColorMatrix type="matrix" values="0 0 0 0 0 0 0 0 0 0 0 0 0 0 0 0 0 0 0.5 0"/>
<feBlend mode="normal" in2="BackgroundImageFix" result="effect1_dropShadow_5_3"/>
<feBlend mode="normal" in="SourceGraphic" in2="effect1_dropShadow_5_3" result="shape"/>
</filter>
<filter id="filter2_d_5_3" x="0.5" y="33.813" width="107.488" height="107.488" filterUnits="userSpaceOnUse" color-interpolation-filters="sRGB">
<feFlood flood-opacity="0" result="BackgroundImageFix"/>
<feColorMatrix in="SourceAlpha" type="matrix" values="0 0 0 0 0 0 0 0 0 0 0 0 0 0 0 0 0 0 127 0" result="hardAlpha"/>
<feOffset/>
<feGaussianBlur stdDeviation="4"/>
<feColorMatrix type="matrix" values="0 0 0 0 0 0 0 0 0 0 0 0 0 0 0 0 0 0 0.5 0"/>
<feBlend mode="normal" in2="BackgroundImageFix" result="effect1_dropShadow_5_3"/>
<feBlend mode="normal" in="SourceGraphic" in2="effect1_dropShadow_5_3" result="shape"/>
</filter>
<filter id="filter3_d_5_3" x="66.569" y="86.439" width="129.068" height="98.436" filterUnits="userSpaceOnUse" color-interpolation-filters="sRGB">
<feFlood flood-opacity="0" result="BackgroundImageFix"/>
<feColorMatrix in="SourceAlpha" type="matrix" values="0 0 0 0 0 0 0 0 0 0 0 0 0 0 0 0 0 0 127 0" result="hardAlpha"/>
<feOffset/>
<feGaussianBlur stdDeviation="4"/>
<feColorMatrix type="matrix" values="0 0 0 0 0 0 0 0 0 0 0 0 0 0 0 0 0 0 0.5 0"/>
<feBlend mode="normal" in2="BackgroundImageFix" result="effect1_dropShadow_5_3"/>
<feBlend mode="normal" in="SourceGraphic" in2="effect1_dropShadow_5_3" result="shape"/>
</filter>
<linearGradient id="paint0_linear_5_3" x1="54" y1="41.813" x2="54" y2="132.813" gradientUnits="userSpaceOnUse">
<stop offset="0.0173913" stop-color="#7289DA"/>
<stop offset="0.991304" stop-color="#677BC4"/>
</linearGradient>
<linearGradient id="paint1_linear_5_3" x1="119.051" y1="94.439" x2="119.051" y2="176.875" gradientUnits="userSpaceOnUse">
<stop offset="0.00869565" stop-color="#5B6EAE"/>
<stop offset="1" stop-color="#52639D"/>
</linearGradient>
</defs>
</svg>
