<svg width="220" height="220" viewBox="0 0 220 220" fill="none" xmlns="http://www.w3.org/2000/svg">
<g filter="url(#filter0_d_5_2)">
<path d="M78.5 30.7H185.43C189.845 30.7 193.43 34.285 193.43 38.7V139.634C193.43 144.049 189.845 147.634 185.43 147.634H78.5C74.085 147.634 70.5 144.049 70.5 139.634V38.7C70.5 34.285 74.085 30.7 78.5 30.7Z" fill="#5B6EAE"/>
</g>
<path d="M77.96 30.233H184.89C189.306 30.233 192.89 33.818 192.89 38.233V139.166C192.89 143.582 189.306 147.166 184.89 147.166H77.96C73.545 147.166 69.96 143.582 69.96 139.166V38.233C69.96 33.818 73.545 30.233 77.96 30.233Z" fill="#7289DA"/>
<path d="M192.89 84.439H69.96V116.439H192.89V84.439Z" fill="#8EA1E1"/>
<path d="M192.89 52.439H69.96V84.439H192.89V52.439Z" fill="#AAB8E9"/>
<g filter="url(#filter1_d_5_2)">
<path d="M193.43 116.439H85.701V141.17H193.43V116.439Z" fill="#EBEBEB"/>
</g>
<g filter="url(#filter2_d_5_2)">
<path d="M28.275 63.813H104.213C108.504 63.813 111.988 67.297 111.988 71.588V147.527C111.988 151.818 108.504 155.301 104.213 155.301H28.275C23.984 155.301 20.5 151.818 20.5 147.527V71.588C20.5 67.297 23.984 63.813 28.275 63.813Z" fill="#677BC4"/>
</g>
<path d="M28.233 63.813H103.767C108.035 63.813 111.5 67.278 111.5 71.546V147.08C111.5 151.348 108.035 154.813 103.767 154.813H28.233C23.965 154.813 20.5 151.348 20.5 147.08V71.546C20.5 67.278 23.965 63.813 28.233 63.813Z" fill="url(#paint0_linear_5_2)"/>
<path d="M59.8626 106.897C61.2852 106.897 62.4384 105.744 62.4384 104.321C62.4384 102.899 61.2852 101.745 59.8626 101.745C58.4401 101.745 57.2868 102.899 57.2868 104.321C57.2868 105.744 58.4401 106.897 59.8626 106.897Z" fill="white"/>
<path d="M99.891 90.248C99.551 86.807 97.571 82.96 93.915 82.128C90.519 81.352 86.392 82.063 81.65 84.237C78.269 85.786 74.583 88.105 71.19 90.813C71.19 90.813 69.358 92.079 70.722 93.256C71.464 93.898 74 92.871 74 92.871C75.538 92.35 77.771 91.69 80.212 91.291C84.165 90.645 89.505 90.558 92.502 93.815C93.408 94.8 94.252 95.46 95.081 95.833C96.275 96.369 97.194 96.183 97.755 95.931C98.376 95.653 99.21 95.005 99.653 93.5C99.927 92.571 100.009 91.446 99.891 90.248ZM97.064 92.738C96.918 93.235 96.73 93.433 96.651 93.468C96.532 93.522 95.814 93.428 94.488 91.987C92.77 90.12 90.405 88.934 87.459 88.463C86.433 88.304 85.396 88.226 84.357 88.23C82.911 88.23 81.361 88.365 79.723 88.635C79.4063 88.687 79.0937 88.7433 78.785 88.804C83.773 85.816 89.174 83.815 93.314 84.759C95.649 85.291 96.968 88.115 97.204 90.513C97.288 91.357 97.238 92.147 97.064 92.738Z" fill="white"/>
<path d="M81.35 112.99C81.906 112.672 82.423 112.289 82.889 111.849C83.747 111.04 84.282 110.138 84.469 109.209C81.992 108.797 78.294 108.197 77.841 108.204C76.508 108.228 75.765 108.117 74.586 108.507C68.547 110.506 65.332 113.107 64.993 113.39C65.042 114.085 65.114 114.784 65.216 115.473C65.478 117.252 65.907 118.77 66.491 119.985C66.971 120.982 67.559 121.786 68.248 122.387L69.713 125.337L70.572 123.777C71.994 121.392 73.681 119.422 75.166 117.934C78.253 114.841 81.161 113.102 81.35 112.99ZM69.761 120.1C68.482 118.717 67.852 115.889 67.666 112.962L70.052 111.5C71.993 110.381 74.867 109.192 77.142 109.192C77.384 109.191 77.625 109.206 77.864 109.237L81.239 109.681C80.889 110.054 80.487 110.374 80.044 110.629L80.01 110.647C79.878 110.724 76.735 112.556 73.312 115.971C72.022 117.252 70.835 118.633 69.762 120.1H69.761Z" fill="white"/>
<path d="M84.542 108.357C84.51 107.301 84.039 106.289 83.142 105.35C82.245 104.411 80.927 103.54 79.123 102.704C77.533 101.879 77.179 100.668 76.694 98.604C76.28 96.848 75.787 94.758 74 92.873L71.19 90.815C69.802 90.147 66.818 88.976 62.637 88.772C59.279 88.607 55.823 89.099 52.367 90.233C48.092 91.633 43.806 94.027 39.626 97.347C38.961 97.868 38.302 98.355 37.666 98.827C34.788 100.957 32.304 102.796 32.074 105.676C31.977 106.884 32.296 108.139 33.05 109.509C33.771 110.823 34.901 112.258 36.503 113.896C39.106 116.558 41.557 119.157 43.926 121.67C48.308 126.316 52.091 130.328 55.326 133.138C57.096 134.676 58.585 135.747 59.876 136.414C61.011 136.999 62.026 137.291 62.947 137.291C63.346 137.292 63.742 137.234 64.124 137.119C65.098 136.821 65.896 136.152 66.496 135.13C67.024 134.23 67.402 133.058 67.65 131.549C68.129 128.631 69.233 126.021 70.571 123.777L68.247 122.388C66.574 125.192 65.476 128.126 64.986 131.111C64.66 133.094 64.075 134.312 63.335 134.537C62.837 134.689 62.069 134.509 61.113 134.016C60.015 133.45 58.701 132.498 57.096 131.102C53.964 128.381 50.222 124.413 45.889 119.819C43.511 117.298 41.051 114.691 38.433 112.01C35.847 109.364 34.647 107.363 34.764 105.891C34.897 104.235 36.827 102.805 39.272 100.996C39.924 100.514 40.598 100.014 41.293 99.471L41.3 99.465C47.926 94.201 54.847 91.438 61.382 91.438C61.7033 91.438 62.0237 91.4447 62.343 91.458C65.024 91.57 67.134 92.138 68.432 92.593C69.756 93.059 70.531 93.507 70.629 93.565C73.116 95.197 73.578 97.152 74.066 99.223C74.324 100.313 74.599 101.48 75.201 102.549C70.324 103.127 65.975 105.916 65.751 106.063L65.227 106.403L65.148 107.023C64.953 108.541 64.836 110.734 64.969 113.015C64.976 113.14 64.985 113.265 64.994 113.391C65.333 113.107 68.547 110.506 74.587 108.508C75.768 108.118 76.51 108.228 77.841 108.204C78.296 108.196 81.991 108.797 84.469 109.21C84.526 108.929 84.55 108.643 84.542 108.357ZM78.131 107.229C77.804 107.187 77.474 107.167 77.144 107.168C73.767 107.168 70.072 109.152 69.02 109.76L67.609 110.624C67.621 109.711 67.671 108.824 67.753 108.007C69.303 107.111 73.981 104.675 78.142 105.222C80.257 106.225 81.176 107.08 81.568 107.682L78.131 107.229Z" fill="white"/>
<g filter="url(#filter3_d_5_2)">
<path fill-rule="evenodd" clip-rule="evenodd" d="M199.637 168.892V123.37C199.637 119.545 196.531 116.439 192.706 116.439H93.5C89.674 116.439 86.569 119.545 86.569 123.37V171.961C86.569 175.786 89.674 178.892 93.5 178.892H179.654L184.645 183.884L199.637 198.875V171.961V168.892Z" fill="url(#paint1_linear_5_2)"/>
</g>
<path d="M110.026 139.545L107.129 157H102.91L105.808 139.545H110.026ZM115.214 149.534L113.97 157H109.803L111.984 143.909H115.947L115.555 146.312H115.7C116.109 145.511 116.703 144.884 117.482 144.429C118.26 143.969 119.135 143.739 120.107 143.739C121.021 143.739 121.786 143.943 122.399 144.352C123.013 144.761 123.447 145.335 123.703 146.074C123.959 146.807 124.001 147.668 123.831 148.656L122.433 157H118.266L119.518 149.474C119.643 148.753 119.555 148.187 119.254 147.778C118.959 147.364 118.476 147.156 117.805 147.156C117.368 147.156 116.967 147.253 116.604 147.446C116.246 147.634 115.945 147.903 115.7 148.256C115.462 148.608 115.3 149.034 115.214 149.534ZM137.9 147.906L134.141 148.009C134.147 147.73 134.085 147.486 133.954 147.276C133.823 147.06 133.638 146.892 133.4 146.773C133.161 146.653 132.877 146.594 132.548 146.594C132.013 146.594 131.533 146.713 131.107 146.952C130.687 147.19 130.451 147.5 130.4 147.881C130.36 148.085 130.417 148.264 130.57 148.418C130.724 148.565 131.065 148.696 131.593 148.81L134.048 149.287C135.309 149.537 136.224 149.972 136.792 150.591C137.366 151.205 137.57 152.017 137.406 153.028C137.258 153.892 136.877 154.639 136.263 155.27C135.656 155.901 134.88 156.389 133.937 156.736C132.999 157.077 131.962 157.247 130.826 157.247C128.906 157.247 127.457 156.861 126.479 156.088C125.508 155.31 125.053 154.278 125.116 152.994L129.173 152.892C129.19 153.375 129.352 153.739 129.658 153.983C129.971 154.222 130.394 154.347 130.928 154.358C131.513 154.369 132.019 154.247 132.445 153.991C132.871 153.736 133.11 153.42 133.161 153.045C133.195 152.801 133.113 152.611 132.914 152.474C132.721 152.338 132.36 152.216 131.832 152.108L129.616 151.673C128.343 151.429 127.423 150.969 126.854 150.293C126.292 149.611 126.099 148.741 126.275 147.685C126.423 146.844 126.769 146.131 127.315 145.545C127.866 144.955 128.585 144.506 129.471 144.199C130.363 143.892 131.38 143.739 132.522 143.739C134.352 143.739 135.732 144.111 136.664 144.855C137.602 145.594 138.013 146.611 137.9 147.906ZM138.793 157L140.974 143.909H145.142L142.96 157H138.793ZM143.352 142.375C142.761 142.375 142.281 142.179 141.912 141.787C141.543 141.395 141.398 140.926 141.477 140.381C141.557 139.83 141.835 139.361 142.312 138.974C142.79 138.588 143.321 138.395 143.906 138.395C144.497 138.395 144.972 138.588 145.33 138.974C145.693 139.361 145.835 139.83 145.756 140.381C145.688 140.926 145.415 141.395 144.938 141.787C144.466 142.179 143.938 142.375 143.352 142.375ZM150.377 157.188C149.411 157.188 148.573 156.938 147.863 156.438C147.153 155.938 146.644 155.188 146.337 154.188C146.036 153.188 146.008 151.946 146.252 150.463C146.508 148.923 146.962 147.656 147.616 146.662C148.269 145.668 149.031 144.932 149.9 144.455C150.775 143.977 151.667 143.739 152.576 143.739C153.263 143.739 153.832 143.858 154.281 144.097C154.735 144.33 155.09 144.631 155.346 145C155.602 145.369 155.778 145.753 155.874 146.151H155.968L157.067 139.545H161.235L158.337 157H154.212L154.562 154.878H154.434C154.19 155.281 153.877 155.659 153.496 156.011C153.116 156.364 152.664 156.648 152.141 156.864C151.624 157.08 151.036 157.188 150.377 157.188ZM152.346 153.94C152.852 153.94 153.309 153.798 153.718 153.514C154.127 153.224 154.471 152.818 154.749 152.295C155.033 151.773 155.232 151.159 155.346 150.455C155.465 149.739 155.471 149.122 155.363 148.605C155.255 148.088 155.042 147.69 154.724 147.412C154.411 147.134 153.999 146.994 153.488 146.994C152.977 146.994 152.519 147.136 152.116 147.42C151.712 147.705 151.377 148.105 151.11 148.622C150.843 149.139 150.65 149.75 150.531 150.455C150.417 151.159 150.406 151.773 150.496 152.295C150.593 152.818 150.795 153.224 151.102 153.514C151.414 153.798 151.829 153.94 152.346 153.94ZM167.073 157.247C165.704 157.247 164.567 156.977 163.664 156.438C162.766 155.892 162.136 155.116 161.772 154.111C161.408 153.099 161.343 151.898 161.576 150.506C161.803 149.153 162.266 147.972 162.965 146.96C163.67 145.943 164.556 145.153 165.624 144.591C166.692 144.023 167.883 143.739 169.195 143.739C170.127 143.739 170.954 143.884 171.675 144.173C172.397 144.463 172.994 144.895 173.465 145.469C173.937 146.037 174.258 146.736 174.428 147.565C174.599 148.395 174.593 149.347 174.411 150.42L174.249 151.46H162.88L163.263 149.04H170.763C170.832 148.597 170.795 148.202 170.653 147.855C170.511 147.509 170.281 147.239 169.962 147.045C169.65 146.847 169.266 146.747 168.812 146.747C168.352 146.747 167.92 146.855 167.516 147.071C167.119 147.281 166.781 147.565 166.502 147.923C166.224 148.281 166.042 148.685 165.957 149.134L165.505 151.614C165.414 152.165 165.44 152.636 165.582 153.028C165.724 153.42 165.968 153.722 166.315 153.932C166.661 154.136 167.107 154.239 167.653 154.239C168.016 154.239 168.357 154.19 168.675 154.094C168.994 153.991 169.278 153.841 169.528 153.642C169.783 153.437 169.991 153.19 170.15 152.901L173.951 153.011C173.644 153.869 173.17 154.616 172.528 155.253C171.886 155.884 171.102 156.375 170.175 156.727C169.255 157.074 168.221 157.247 167.073 157.247ZM175.449 157L177.631 143.909H181.679L181.278 146.295H181.415C181.795 145.432 182.293 144.79 182.906 144.369C183.52 143.943 184.185 143.73 184.901 143.73C185.094 143.73 185.287 143.744 185.48 143.773C185.679 143.795 185.866 143.83 186.043 143.875L185.429 147.506C185.236 147.432 184.983 147.378 184.67 147.344C184.358 147.304 184.074 147.284 183.818 147.284C183.324 147.284 182.864 147.395 182.438 147.616C182.017 147.832 181.659 148.136 181.364 148.528C181.074 148.915 180.884 149.369 180.793 149.892L179.616 157H175.449Z" fill="white"/>
<defs>
<filter id="filter0_d_5_2" x="62.5" y="22.7" width="138.93" height="132.934" filterUnits="userSpaceOnUse" color-interpolation-filters="sRGB">
<feFlood flood-opacity="0" result="BackgroundImageFix"/>
<feColorMatrix in="SourceAlpha" type="matrix" values="0 0 0 0 0 0 0 0 0 0 0 0 0 0 0 0 0 0 127 0" result="hardAlpha"/>
<feOffset/>
<feGaussianBlur stdDeviation="4"/>
<feColorMatrix type="matrix" values="0 0 0 0 0 0 0 0 0 0 0 0 0 0 0 0 0 0 0.5 0"/>
<feBlend mode="normal" in2="BackgroundImageFix" result="effect1_dropShadow_5_2"/>
<feBlend mode="normal" in="SourceGraphic" in2="effect1_dropShadow_5_2" result="shape"/>
</filter>
<filter id="filter1_d_5_2" x="77.701" y="108.439" width="123.729" height="40.731" filterUnits="userSpaceOnUse" color-interpolation-filters="sRGB">
<feFlood flood-opacity="0" result="BackgroundImageFix"/>
<feColorMatrix in="SourceAlpha" type="matrix" values="0 0 0 0 0 0 0 0 0 0 0 0 0 0 0 0 0 0 127 0" result="hardAlpha"/>
<feOffset/>
<feGaussianBlur stdDeviation="4"/>
<feColorMatrix type="matrix" values="0 0 0 0 0 0 0 0 0 0 0 0 0 0 0 0 0 0 0.5 0"/>
<feBlend mode="normal" in2="BackgroundImageFix" result="effect1_dropShadow_5_2"/>
<feBlend mode="normal" in="SourceGraphic" in2="effect1_dropShadow_5_2" result="shape"/>
</filter>
<filter id="filter2_d_5_2" x="12.5" y="55.813" width="107.488" height="107.488" filterUnits="userSpaceOnUse" color-interpolation-filters="sRGB">
<feFlood flood-opacity="0" result="BackgroundImageFix"/>
<feColorMatrix in="SourceAlpha" type="matrix" values="0 0 0 0 0 0 0 0 0 0 0 0 0 0 0 0 0 0 127 0" result="hardAlpha"/>
<feOffset/>
<feGaussianBlur stdDeviation="4"/>
<feColorMatrix type="matrix" values="0 0 0 0 0 0 0 0 0 0 0 0 0 0 0 0 0 0 0.5 0"/>
<feBlend mode="normal" in2="BackgroundImageFix" result="effect1_dropShadow_5_2"/>
<feBlend mode="normal" in="SourceGraphic" in2="effect1_dropShadow_5_2" result="shape"/>
</filter>
<filter id="filter3_d_5_2" x="78.569" y="108.439" width="129.068" height="98.436" filterUnits="userSpaceOnUse" color-interpolation-filters="sRGB">
<feFlood flood-opacity="0" result="BackgroundImageFix"/>
<feColorMatrix in="SourceAlpha" type="matrix" values="0 0 0 0 0 0 0 0 0 0 0 0 0 0 0 0 0 0 127 0" result="hardAlpha"/>
<feOffset/>
<feGaussianBlur stdDeviation="4"/>
<feColorMatrix type="matrix" values="0 0 0 0 0 0 0 0 0 0 0 0 0 0 0 0 0 0 0.5 0"/>
<feBlend mode="normal" in2="BackgroundImageFix" result="effect1_dropShadow_5_2"/>
<feBlend mode="normal" in="SourceGraphic" in2="effect1_dropShadow_5_2" result="shape"/>
</filter>
<linearGradient id="paint0_linear_5_2" x1="66" y1="63.813" x2="66" y2="154.813" gradientUnits="userSpaceOnUse">
<stop offset="0.0173913" stop-color="#7289DA"/>
<stop offset="0.991304" stop-color="#677BC4"/>
</linearGradient>
<linearGradient id="paint1_linear_5_2" x1="131.051" y1="116.439" x2="131.051" y2="198.875" gradientUnits="userSpaceOnUse">
<stop offset="0.00869565" stop-color="#5B6EAE"/>
<stop offset="1" stop-color="#52639D"/>
</linearGradient>
</defs>
</svg>
