<svg width="196" height="148" viewBox="0 0 196 148" fill="none" xmlns="http://www.w3.org/2000/svg">
<g filter="url(#filter0_d_8_109)">
<path fill-rule="evenodd" clip-rule="evenodd" d="M188 91.5033V19.0339C188 12.9446 183.055 8 176.966 8H19.0339C12.9431 8 8 12.9446 8 19.0339V96.389C8 102.478 12.9431 107.423 19.0339 107.423H156.188L164.133 115.37L188 139.235V96.389V91.5033Z" fill="url(#paint0_linear_8_109)"/>
</g>
<path d="M91.3096 55.3311C92.8603 55.3311 94.1174 54.074 94.1174 52.5234C94.1174 50.9727 92.8603 49.7156 91.3096 49.7156C89.759 49.7156 88.5019 50.9727 88.5019 52.5234C88.5019 54.074 89.759 55.3311 91.3096 55.3311Z" fill="white"/>
<path d="M134.943 37.1828C134.572 33.4319 132.414 29.2385 128.429 28.3315C124.727 27.4856 120.228 28.2607 115.059 30.6305C111.374 32.319 107.356 34.8468 103.657 37.7987C103.657 37.7987 101.66 39.1787 103.147 40.4617C103.956 41.1615 106.72 40.042 106.72 40.042C108.397 39.4741 110.831 38.7547 113.492 38.3197C117.801 37.6155 123.622 37.5207 126.888 41.071C127.876 42.1447 128.796 42.8642 129.7 43.2708C131.001 43.855 132.003 43.6523 132.615 43.3776C133.291 43.0746 134.201 42.3682 134.683 40.7277C134.982 39.715 135.071 38.4887 134.943 37.1828ZM131.861 39.897C131.702 40.4388 131.497 40.6546 131.411 40.6928C131.281 40.7516 130.499 40.6492 129.053 39.0784C127.181 37.0433 124.603 35.7505 121.391 35.237C120.273 35.0637 119.142 34.9787 118.01 34.9831C116.434 34.9831 114.744 35.1302 112.959 35.4245C112.613 35.4812 112.273 35.5426 111.936 35.6088C117.373 32.3517 123.261 30.1705 127.774 31.1995C130.319 31.7794 131.757 34.8577 132.014 37.4717C132.105 38.3917 132.051 39.2528 131.861 39.897Z" fill="white"/>
<path d="M114.732 61.9729C115.338 61.6262 115.902 61.2087 116.41 60.7291C117.345 59.8473 117.928 58.864 118.132 57.8514C115.432 57.4023 111.401 56.7482 110.907 56.7559C109.454 56.782 108.644 56.661 107.359 57.0862C100.776 59.2652 97.2716 62.1004 96.9021 62.4089C96.9555 63.1665 97.034 63.9284 97.1452 64.6795C97.4308 66.6187 97.8984 68.2734 98.535 69.5978C99.0582 70.6846 99.6992 71.561 100.45 72.2161L102.047 75.4318L102.984 73.7313C104.534 71.1315 106.373 68.9841 107.991 67.3621C111.356 63.9906 114.526 62.095 114.732 61.9729ZM102.099 69.7232C100.705 68.2156 100.019 65.133 99.8158 61.9424L102.417 60.3487C104.533 59.1289 107.665 57.8328 110.145 57.8328C110.409 57.8318 110.672 57.8481 110.932 57.8819L114.611 58.3659C114.23 58.7725 113.791 59.1213 113.309 59.3993L113.271 59.4189C113.128 59.5028 109.702 61.4998 105.97 65.2223C104.564 66.6187 103.27 68.1241 102.101 69.7232H102.099Z" fill="white"/>
<path d="M118.212 56.9226C118.177 55.7715 117.663 54.6684 116.685 53.6448C115.708 52.6213 114.271 51.6718 112.305 50.7606C110.571 49.8613 110.185 48.5412 109.657 46.2913C109.206 44.3772 108.668 42.099 106.72 40.0442L103.657 37.8009C102.144 37.0727 98.8914 35.7963 94.3339 35.5739C90.6735 35.394 86.9062 35.9303 83.139 37.1665C78.479 38.6925 73.807 41.3021 69.2506 44.9211C68.5257 45.489 67.8073 46.0199 67.1141 46.5344C63.9769 48.8562 61.2692 50.8608 61.0185 54.0002C60.9127 55.317 61.2604 56.685 62.0824 58.1784C62.8683 59.6107 64.1 61.175 65.8463 62.9605C68.6837 65.8622 71.3555 68.6953 73.9378 71.4346C78.7144 76.499 82.8381 80.8723 86.3645 83.9354C88.2939 85.6119 89.917 86.7793 91.3242 87.5064C92.5614 88.1441 93.6678 88.4624 94.6718 88.4624C95.1067 88.4634 95.5384 88.4002 95.9548 88.2749C97.0165 87.95 97.8864 87.2208 98.5404 86.1068C99.116 85.1257 99.528 83.8481 99.7983 82.2032C100.32 79.0225 101.524 76.1774 102.982 73.7313L100.449 72.2172C98.6254 75.2738 97.4285 78.472 96.8944 81.7258C96.5391 83.8874 95.9014 85.2151 95.0947 85.4603C94.5519 85.626 93.7147 85.4298 92.6726 84.8924C91.4757 84.2755 90.0434 83.2377 88.2939 81.716C84.8798 78.75 80.8008 74.4246 76.0776 69.4169C73.4854 66.6688 70.8039 63.8271 67.9501 60.9046C65.1312 58.0203 63.8232 55.8391 63.9507 54.2346C64.0957 52.4294 66.1995 50.8707 68.8647 48.8987C69.5754 48.3733 70.3101 47.8283 71.0677 47.2364L71.0753 47.2299C78.298 41.4918 85.8423 38.48 92.9659 38.48C93.3161 38.48 93.6653 38.4872 94.0134 38.5018C96.9358 38.6239 99.2359 39.243 100.651 39.739C102.094 40.247 102.939 40.7353 103.046 40.7985C105.757 42.5775 106.26 44.7086 106.792 46.9661C107.073 48.1542 107.373 49.4263 108.029 50.5916C102.713 51.2217 97.9725 54.2618 97.7283 54.4221L97.1571 54.7927L97.071 55.4685C96.8584 57.1232 96.7309 59.5137 96.8759 62.0001C96.8835 62.1364 96.8933 62.2726 96.9031 62.41C97.2727 62.1004 100.776 59.2652 107.36 57.0872C108.647 56.6621 109.456 56.782 110.907 56.7559C111.403 56.7471 115.431 57.4023 118.132 57.8525C118.194 57.5462 118.22 57.2344 118.212 56.9226ZM111.223 55.6931C110.867 55.6473 110.507 55.6255 110.147 55.6266C106.466 55.6266 102.438 57.7892 101.292 58.452L99.7536 59.3938C99.7667 58.3986 99.8212 57.4317 99.9106 56.5411C101.6 55.5644 106.699 52.9091 111.235 53.5053C113.541 54.5986 114.542 55.5306 114.97 56.1869L111.223 55.6931Z" fill="white"/>
<defs>
<filter id="filter0_d_8_109" x="0" y="0" width="196" height="147.235" filterUnits="userSpaceOnUse" color-interpolation-filters="sRGB">
<feFlood flood-opacity="0" result="BackgroundImageFix"/>
<feColorMatrix in="SourceAlpha" type="matrix" values="0 0 0 0 0 0 0 0 0 0 0 0 0 0 0 0 0 0 127 0" result="hardAlpha"/>
<feOffset/>
<feGaussianBlur stdDeviation="4"/>
<feColorMatrix type="matrix" values="0 0 0 0 0 0 0 0 0 0 0 0 0 0 0 0 0 0 0.5 0"/>
<feBlend mode="normal" in2="BackgroundImageFix" result="effect1_dropShadow_8_109"/>
<feBlend mode="normal" in="SourceGraphic" in2="effect1_dropShadow_8_109" result="shape"/>
</filter>
<linearGradient id="paint0_linear_8_109" x1="78.8135" y1="8" x2="78.8135" y2="139.235" gradientUnits="userSpaceOnUse">
<stop offset="0.00869565" stop-color="#5B6EAE"/>
<stop offset="1" stop-color="#52639D"/>
</linearGradient>
</defs>
</svg>
