<svg width="196" height="148" viewBox="0 0 196 148" fill="none" xmlns="http://www.w3.org/2000/svg">
<g filter="url(#filter0_d_7_106)">
<path fill-rule="evenodd" clip-rule="evenodd" d="M188 91.5033V19.0339C188 12.9446 183.055 8 176.966 8H19.0339C12.9431 8 8 12.9446 8 19.0339V96.389C8 102.478 12.9431 107.423 19.0339 107.423H156.188L164.133 115.37L188 139.235V96.389V91.5033Z" fill="url(#paint0_linear_7_106)"/>
<path d="M71.0114 74H60.1023L64.9318 44.9091H75.5142C78.4688 44.9091 80.9309 45.5104 82.9006 46.7131C84.8797 47.9062 86.2765 49.6203 87.0909 51.8551C87.9148 54.0805 88.071 56.732 87.5597 59.8097C87.0672 62.7831 86.0777 65.3305 84.5909 67.4517C83.1136 69.5729 81.2197 71.197 78.9091 72.3239C76.5985 73.4413 73.9659 74 71.0114 74ZM68.1136 68.0057H71.4517C73.0805 68.0057 74.5199 67.7121 75.7699 67.125C77.0294 66.5284 78.071 65.5767 78.8949 64.2699C79.7188 62.9536 80.3059 61.2254 80.6562 59.0852C80.9972 57.0398 80.983 55.4252 80.6136 54.2415C80.2538 53.0483 79.553 52.196 78.5114 51.6847C77.4792 51.1638 76.1297 50.9034 74.4631 50.9034H70.9688L68.1136 68.0057ZM99.4631 74.4119C97.1809 74.4119 95.2869 73.9621 93.7812 73.0625C92.285 72.1534 91.2339 70.8608 90.6278 69.1847C90.0218 67.4991 89.9129 65.4962 90.3011 63.1761C90.6799 60.9223 91.4517 58.9527 92.6165 57.267C93.7907 55.572 95.268 54.2557 97.0483 53.3182C98.8286 52.3712 100.812 51.8977 103 51.8977C104.553 51.8977 105.931 52.1392 107.134 52.6222C108.336 53.1051 109.33 53.8248 110.116 54.7812C110.902 55.7282 111.438 56.893 111.722 58.2756C112.006 59.6581 111.996 61.2443 111.693 63.0341L111.423 64.767H92.4744L93.1136 60.733H105.614C105.727 59.9943 105.666 59.3362 105.429 58.7585C105.192 58.1809 104.809 57.7311 104.278 57.4091C103.758 57.0777 103.118 56.9119 102.361 56.9119C101.594 56.9119 100.874 57.0919 100.202 57.4517C99.5388 57.8021 98.9754 58.2756 98.5114 58.8722C98.0473 59.4687 97.7443 60.1411 97.6023 60.8892L96.8494 65.0227C96.6979 65.9413 96.7405 66.7273 96.9773 67.3807C97.214 68.0341 97.6212 68.536 98.1989 68.8864C98.7765 69.2273 99.5199 69.3977 100.429 69.3977C101.035 69.3977 101.603 69.3172 102.134 69.1562C102.664 68.9858 103.137 68.7348 103.554 68.4034C103.98 68.0625 104.326 67.6506 104.591 67.1676L110.926 67.3523C110.415 68.7822 109.624 70.0275 108.554 71.0881C107.484 72.1392 106.177 72.9583 104.634 73.5455C103.099 74.1231 101.376 74.4119 99.4631 74.4119ZM137.638 52.1818L126.516 74H118.561L114.726 52.1818H121.786L123.32 67.2102H123.547L130.067 52.1818H137.638Z" fill="white"/>
</g>
<defs>
<filter id="filter0_d_7_106" x="0" y="0" width="196" height="147.235" filterUnits="userSpaceOnUse" color-interpolation-filters="sRGB">
<feFlood flood-opacity="0" result="BackgroundImageFix"/>
<feColorMatrix in="SourceAlpha" type="matrix" values="0 0 0 0 0 0 0 0 0 0 0 0 0 0 0 0 0 0 127 0" result="hardAlpha"/>
<feOffset/>
<feGaussianBlur stdDeviation="4"/>
<feColorMatrix type="matrix" values="0 0 0 0 0 0 0 0 0 0 0 0 0 0 0 0 0 0 0.5 0"/>
<feBlend mode="normal" in2="BackgroundImageFix" result="effect1_dropShadow_7_106"/>
<feBlend mode="normal" in="SourceGraphic" in2="effect1_dropShadow_7_106" result="shape"/>
</filter>
<linearGradient id="paint0_linear_7_106" x1="78.8135" y1="8" x2="78.8135" y2="139.235" gradientUnits="userSpaceOnUse">
<stop offset="0.00869565" stop-color="#5B6EAE"/>
<stop offset="1" stop-color="#52639D"/>
</linearGradient>
</defs>
</svg>
