<?xml version="1.0" encoding="utf-8"?>
<!-- Generator: Adobe Illustrator 22.0.0, SVG Export Plug-In . SVG Version: 6.00 Build 0)  -->
<svg version="1.1" id="Layer_1" xmlns="http://www.w3.org/2000/svg" xmlns:xlink="http://www.w3.org/1999/xlink" x="0px" y="0px"
	 viewBox="0 0 50 50" style="enable-background:new 0 0 50 50;" xml:space="preserve">
<style type="text/css">
	.st0{fill:#738BD7;}
	.st1{display:none;fill:#738BD7;}
</style>
<circle class="st0" cx="20.6" cy="21.5" r="1.8"/>
<g>
	<path class="st0" d="M33.7,23.6c-0.2,0-0.5,0-0.7,0c-2.4,0-5.1,1.4-5.8,1.9l-1.2,0.8l-0.2-0.7l-1.3,0.8l0.7,2.1l2.8-1.7
		c1.4-0.8,3.5-1.7,5.1-1.7c0.2,0,0.4,0,0.5,0l4.2,0.6L36.2,24L33.7,23.6z"/>
</g>
<g>
	<path class="st0" d="M49.3,11.4C49.1,9,47.7,6.2,45,5.6c-2.4-0.6-5.4,0-8.8,1.5c-2.4,1.1-5.1,2.8-7.5,4.7c-1-0.5-3.1-1.3-6.1-1.5
		c-2.4-0.1-4.9,0.2-7.4,1c-3.1,1-6.1,2.7-9.1,5.1c-0.5,0.4-1,0.7-1.4,1.1c-2.1,1.5-3.8,2.9-4,4.9c-0.1,0.9,0.2,1.8,0.7,2.8
		c0.5,0.9,1.3,2,2.5,3.1c1.9,1.9,3.6,3.8,5.3,5.6c3.1,3.3,5.9,6.2,8.2,8.2c1.3,1.1,2.3,1.9,3.3,2.4c0.8,0.4,1.5,0.6,2.2,0.6
		c0.3,0,0.6,0,0.8-0.1c0.7-0.2,1.3-0.7,1.7-1.4c0.4-0.6,0.7-1.5,0.8-2.6c0.7-4.3,3.3-7.7,5.4-9.8c2.2-2.2,4.3-3.5,4.4-3.5
		c0.1-0.1,0.6-0.3,1.1-0.8c0.8-0.8,1.2-1.6,1.2-2.5c0-0.8-0.4-1.5-1-2.2c-0.6-0.7-1.6-1.3-2.9-1.9c-1.1-0.6-1.4-1.5-1.7-2.9
		c-0.3-1.3-0.7-2.8-1.9-4.1c1.1-0.4,2.7-0.8,4.5-1.1c2.8-0.5,6.7-0.5,8.8,1.8c0.7,0.7,1.3,1.2,1.9,1.4c0.9,0.4,1.5,0.3,1.9,0.1
		c0.4-0.2,1-0.7,1.4-1.7C49.4,13.1,49.4,12.3,49.3,11.4z M36.4,24.5c0,0.6-0.9,1.3-1.3,1.6l0,0c-0.1,0.1-2.4,1.4-4.8,3.8
		c-1,0.9-1.8,1.9-2.5,3c-1.5-1.6-1.7-5.7-1.4-8.7c1.1-0.6,4.5-2.4,7.5-2C36.1,23.3,36.4,24.2,36.4,24.5z M30.8,17.9
		c0.2,0.8,0.4,1.6,0.8,2.4c-3.5,0.4-6.6,2.4-6.8,2.5L24.4,23l-0.1,0.4c-0.2,1.5-0.3,3.9,0,6.1c0.2,1.3,0.5,2.4,0.9,3.2
		c0.3,0.7,0.8,1.3,1.3,1.7c-1.2,2-2,4.1-2.3,6.3c-0.2,1.4-0.7,2.3-1.2,2.5c-0.4,0.1-0.9,0-1.6-0.4c-0.8-0.4-1.7-1.1-2.9-2.1
		c-2.2-2-4.9-4.8-8-8.1c-1.7-1.8-3.5-3.7-5.4-5.6c-1.9-1.9-2.7-3.3-2.6-4.4c0.1-1.2,1.5-2.2,3.2-3.5c0.5-0.3,1-0.7,1.5-1.1l0,0
		c4.8-3.8,9.7-5.8,14.4-5.8c0.2,0,0.5,0,0.7,0c1.9,0.1,3.4,0.5,4.4,0.8c1,0.3,1.5,0.7,1.6,0.7C30.1,15,30.4,16.4,30.8,17.9z
		 M47.3,13.2c-0.1,0.4-0.2,0.5-0.3,0.5c-0.1,0-0.6,0-1.6-1.1c-1.2-1.3-2.9-2.2-5-2.5C39.7,10,39,10,38.2,10c-1,0-2.2,0.1-3.3,0.3
		c-0.2,0-0.5,0.1-0.7,0.1c3.6-2.1,7.5-3.6,10.4-2.9c1.7,0.4,2.6,2.4,2.8,4.1C47.5,12.2,47.4,12.8,47.3,13.2z"/>
	<path class="st1" d="M20.6,18.8c-1.5,0-2.7,1.2-2.7,2.7c0,1.5,1.2,2.7,2.7,2.7c1.5,0,2.7-1.2,2.7-2.7
		C23.3,20.1,22.1,18.8,20.6,18.8z M20.6,22.3c-0.4,0-0.8-0.3-0.8-0.8c0-0.4,0.3-0.8,0.8-0.8s0.8,0.3,0.8,0.8
		C21.4,22,21,22.3,20.6,22.3z"/>
	<path class="st1" d="M25.9,25.8l-1.3-0.1c0.9-0.9-1.4,0.4,0.2,0.2C26,25.7,24.5,26.5,25.9,25.8c4.3-2,10.1-0.2,10.7,0.4l0.4,0.3
		c0,0,1-1,0.5-1.8C36.2,22.6,28.6,24,25.9,25.8z"/>
</g>
</svg>
