<svg viewBox="0 0 50 50" xmlns="http://www.w3.org/2000/svg"><style type="text/css">  
	.st0{fill:none;stroke:#738BD7;stroke-width:2;stroke-miterlimit:10;}
	.st1{fill:none;stroke:#738BD7;stroke-width:2;stroke-linecap:round;stroke-linejoin:round;stroke-miterlimit:10;}
</style><path class="st0" d="M32.4 36.1l2.8 3.9c1.9-0.1 9.3-1.5 11.8-6 0-9.6-4.2-20.8-6-22.5C37.2 8.5 31 8 31 8s-0.5 1.1-0.6 2.5"/><ellipse class="st1" cx="31.5" cy="25.3" rx="3.5" ry="3.7"/><path class="st0" d="M19.6 10.5C19 8 19 8 19 8s-6.2 0.5-10 3.5C7.2 13.2 3 24.4 3 34c2.6 4.5 9.9 5.9 11.8 6l2.8-3.9"/><path class="st0" d="M10.5 32.8c0 0 4.8 4.2 14.5 4.2s14.5-4.2 14.5-4.2"/><path class="st0" d="M38.1 13.4c-5-3-11-3.4-13.1-3.4s-8.1 0.4-13.1 3.4"/><ellipse class="st1" cx="18.5" cy="25.3" rx="3.5" ry="3.7"/></svg>