<?xml version="1.0" encoding="UTF-8"?>
<!-- Generator: Adobe Illustrator 19.0.0, SVG Export Plug-In . SVG Version: 6.00 Build 0)  -->
<svg version="1.1" id="Layer_1" xmlns:sketch="http://www.bohemiancoding.com/sketch/ns" xmlns="http://www.w3.org/2000/svg" xmlns:xlink="http://www.w3.org/1999/xlink" x="0px" y="0px" viewBox="-289 382 32 30" style="enable-background:new -289 382 32 30;" xml:space="preserve">
<style type="text/css">
	.st0{fill:#FFFFFF;}
	.st1{opacity:0.6;}
</style>
<path class="st0" d="M-273,409.5L-273,409.5c-4.1,0-6.8-0.6-7.9-1.7c-0.5-0.6-0.6-1.1-0.6-1.3c0-0.7,0.1-2.9,0.6-3.8  c0.1-0.3,0.5-1,4.5-2.4c-1.6-1.4-2.6-4-2.6-7.1c0-4.2,2.3-7,5.9-7.1l0.1,0c3.6,0.1,5.9,2.8,5.9,7.1c0,3.1-1,5.7-2.6,7.1  c4,1.4,4.4,2.1,4.5,2.4c0.4,0.9,0.5,3.1,0.6,3.8c0,0.2,0,0.7-0.6,1.3C-266.3,408.9-268.9,409.5-273,409.5z M-273,407.5L-273,407.5  c5.1,0,6.2-0.9,6.4-1.1c-0.1-1.1-0.2-2.3-0.3-2.7c-0.6-0.4-2.9-1.3-4.8-1.9l-0.7-0.2l-0.1-2l0.7-0.3c1.7-0.6,2.8-3.1,2.8-6.1  c0-3.1-1.5-5-3.9-5.1c-2.5,0-4,2-4,5.1c0,3,1.1,5.5,2.8,6.1l0.7,0.3l-0.1,2l-0.7,0.2c-1.9,0.6-4.2,1.5-4.8,1.9  c-0.1,0.4-0.3,1.6-0.3,2.7C-279.2,406.6-278,407.5-273,407.5z"/>
<g class="st1">
	<path class="st0" d="M-257,402.8c0-0.7-0.1-2.9-0.6-3.8c-0.1-0.3-0.5-1-4.5-2.4c1.6-1.4,2.6-4,2.6-7.1c0-4.2-2.3-7-5.9-7.1l-0.1,0   c-1.9,0-3.5,0.8-4.5,2.2c0.6,0.3,1.2,0.6,1.8,1c0.7-0.8,1.6-1.3,2.8-1.3c2.4,0,3.9,2,3.9,5.1c0,3-1.1,5.5-2.8,6.1l-0.7,0.3l0.1,2   l0.7,0.2c1.9,0.6,4.3,1.5,4.8,1.9c0.1,0.4,0.3,1.6,0.3,2.7c-0.2,0.2-1,0.8-3.8,1c0.1,0.6,0.2,1.2,0.2,2c2.5-0.2,4.2-0.8,5-1.6   C-257,403.5-257,403-257,402.8z"/>
	<path class="st0" d="M-287,402.7c0.1-1.1,0.2-2.3,0.3-2.7c0.6-0.4,2.9-1.3,4.8-1.9l0.7-0.2l0.1-2l-0.7-0.3   c-1.6-0.6-2.8-3.1-2.8-6.1c0-3.1,1.5-5,4-5.1c1.2,0,2.1,0.5,2.8,1.3c0.5-0.4,1.1-0.8,1.8-1c-1-1.4-2.6-2.2-4.5-2.2l-0.1,0   c-3.6,0-5.9,2.8-5.9,7.1c0,3.1,1,5.7,2.6,7.1c-4,1.4-4.4,2.1-4.5,2.4c-0.4,0.9-0.5,3.1-0.6,3.8c0,0.2,0,0.7,0.6,1.3   c0.8,0.9,2.5,1.4,5.1,1.6c0-0.7,0.1-1.4,0.2-2C-286,403.5-286.8,402.9-287,402.7z"/>
</g>
</svg>